# Blender v2.67 (sub 0) OBJ File: ''
# www.blender.org
mtllib bevelCube.mtl
o bevelCube
v -6.000151 -7.500001 6.000150
v -6.574118 -7.385833 6.000150
v -6.574118 -7.385831 -6.000153
v -6.000151 -7.499999 -6.000153
v -7.060705 -7.060706 6.000150
v -7.060705 -7.060704 -6.000152
v -7.385832 -6.574119 6.000150
v -7.385832 -6.574117 -6.000152
v -7.500000 -6.000152 6.000150
v -7.500000 -6.000150 -6.000152
v -6.000151 -6.000153 7.499999
v -6.000151 -6.574120 7.385831
v 6.000151 -6.574120 7.385831
v 6.000151 -6.000153 7.499999
v -6.000151 -7.060706 7.060704
v 6.000151 -7.060706 7.060704
v -6.000151 -7.385833 6.574117
v 6.000151 -7.385833 6.574117
v 6.000151 -7.500001 6.000150
v -7.385832 -6.000152 6.574117
v -7.385832 6.000150 6.574119
v -7.500000 6.000150 6.000152
v -7.060705 -6.000152 7.060704
v -7.060705 6.000150 7.060706
v -6.574118 -6.000153 7.385831
v -6.574118 6.000150 7.385833
v -6.000151 6.000150 7.500001
v 7.500000 -6.000152 6.000150
v 7.385832 -6.574119 6.000150
v 7.385832 -6.574117 -6.000152
v 7.500000 -6.000150 -6.000152
v 7.060705 -7.060706 6.000150
v 7.060705 -7.060704 -6.000152
v 6.574118 -7.385833 6.000150
v 6.574118 -7.385831 -6.000153
v 6.000151 -7.499999 -6.000153
v 6.574118 -6.000153 7.385831
v 6.574118 6.000150 7.385833
v 6.000151 6.000150 7.500001
v 7.060705 -6.000152 7.060704
v 7.060705 6.000150 7.060706
v 7.385832 -6.000152 6.574117
v 7.385832 6.000150 6.574119
v 7.500000 6.000150 6.000152
v -7.385832 6.574117 6.000152
v -7.385832 6.574119 -6.000150
v -7.500000 6.000152 -6.000150
v -7.060705 7.060704 6.000152
v -7.060705 7.060706 -6.000150
v -6.574118 7.385831 6.000153
v -6.574118 7.385833 -6.000150
v -6.000151 7.499999 6.000153
v -6.000151 7.500001 -6.000150
v -6.000151 7.385831 6.574120
v 6.000151 7.385831 6.574120
v 6.000151 7.499999 6.000153
v -6.000151 7.060704 7.060706
v 6.000151 7.060704 7.060706
v -6.000151 6.574117 7.385833
v 6.000151 6.574117 7.385833
v 6.574118 7.385831 6.000153
v 6.574118 7.385833 -6.000150
v 6.000151 7.500001 -6.000150
v 7.060705 7.060704 6.000152
v 7.060705 7.060706 -6.000150
v 7.385832 6.574117 6.000152
v 7.385832 6.574119 -6.000150
v 7.500000 6.000152 -6.000150
v -7.385832 6.000152 -6.574117
v -7.385832 -6.000150 -6.574119
v -7.060705 6.000152 -7.060704
v -7.060705 -6.000150 -7.060706
v -6.574118 6.000153 -7.385831
v -6.574118 -6.000150 -7.385833
v -6.000151 6.000153 -7.499999
v -6.000151 -6.000150 -7.500001
v -6.000151 6.574120 -7.385831
v 6.000151 6.574120 -7.385831
v 6.000151 6.000153 -7.499999
v -6.000151 7.060706 -7.060704
v 6.000151 7.060706 -7.060704
v -6.000151 7.385833 -6.574117
v 6.000151 7.385833 -6.574117
v 6.574118 6.000153 -7.385831
v 6.574118 -6.000150 -7.385833
v 6.000151 -6.000150 -7.500001
v 7.060705 6.000152 -7.060704
v 7.060705 -6.000150 -7.060706
v 7.385832 6.000152 -6.574117
v 7.385832 -6.000150 -6.574119
v -6.000151 -7.385831 -6.574120
v 6.000151 -7.385831 -6.574120
v -6.000151 -7.060704 -7.060706
v 6.000151 -7.060704 -7.060706
v -6.000151 -6.574117 -7.385833
v 6.000151 -6.574117 -7.385833
v -7.308716 -6.517851 6.517849
v -7.013255 -7.013256 6.439683
v -6.517850 -7.308717 6.517849
v -6.439684 -7.013256 7.013254
v -6.517850 -6.517851 7.308715
v -7.013255 -6.439685 7.013254
v -6.865787 -6.865788 6.865786
v 6.517850 -7.308717 6.517849
v 7.013255 -7.013256 6.439683
v 7.308716 -6.517851 6.517849
v 7.013255 -6.439685 7.013254
v 6.517850 -6.517851 7.308715
v 6.439684 -7.013256 7.013254
v 6.865787 -6.865788 6.865786
v -6.517850 7.308715 6.517851
v -7.013255 7.013254 6.439685
v -7.308716 6.517849 6.517851
v -7.013255 6.439683 7.013256
v -6.517850 6.517849 7.308717
v -6.439684 7.013254 7.013256
v -6.865787 6.865786 6.865788
v 7.308716 6.517849 6.517851
v 7.013255 7.013254 6.439685
v 6.517850 7.308715 6.517851
v 6.439684 7.013254 7.013256
v 6.517850 6.517849 7.308717
v 7.013255 6.439683 7.013256
v 6.865787 6.865786 6.865788
v -6.517850 6.517851 -7.308715
v -7.013255 6.439685 -7.013254
v -7.308716 6.517851 -6.517849
v -7.013255 7.013256 -6.439683
v -6.517850 7.308717 -6.517849
v -6.439684 7.013256 -7.013254
v -6.865787 6.865788 -6.865786
v 7.308716 6.517851 -6.517849
v 7.013255 6.439685 -7.013254
v 6.517850 6.517851 -7.308715
v 6.439684 7.013256 -7.013254
v 6.517850 7.308717 -6.517849
v 7.013255 7.013256 -6.439683
v 6.865787 6.865788 -6.865786
v -6.517850 -7.308715 -6.517851
v -7.013255 -7.013254 -6.439685
v -7.308716 -6.517849 -6.517851
v -7.013255 -6.439683 -7.013256
v -6.517850 -6.517849 -7.308717
v -6.439684 -7.013254 -7.013256
v -6.865787 -6.865786 -6.865788
v 7.308716 -6.517849 -6.517851
v 7.013255 -7.013254 -6.439685
v 6.517850 -7.308715 -6.517851
v 6.439684 -7.013254 -7.013256
v 6.517850 -6.517849 -7.308717
v 7.013255 -6.439683 -7.013256
v 6.865787 -6.865786 -6.865788
vt 0.074726 0.925274
vt 0.038061 0.925274
vt 0.074726 0.074726
vt 0.000000 0.925274
vt 0.038061 0.074726
vt 0.074726 1.000000
vt 0.074726 0.961940
vt 0.925274 1.000000
vt 0.925274 0.961940
vt 0.000000 0.074726
vt 0.074726 0.961939
vt 0.925274 0.961939
vt 0.925274 0.925274
vt 0.038060 0.925274
vt 0.038060 0.074726
vt 1.000000 0.925274
vt 0.961939 0.925274
vt 0.961939 0.074726
vt 0.925274 0.074726
vt 0.074726 0.038061
vt 0.925274 0.038061
vt 0.074726 0.000000
vt 0.925274 0.000000
vt 1.000000 0.074726
vt 0.925274 0.038060
vt 0.074726 0.038060
vt 0.038061 0.961940
vt 0.000000 0.961939
vt 0.038061 0.961939
vt 0.000000 0.961940
vt 0.038061 1.000000
vt 0.961939 0.961939
vt 1.000000 0.961939
vt 0.038061 0.000000
vt 0.038061 0.038061
vt 0.000000 0.038061
vt 0.961939 1.000000
vt 1.000000 1.000000
vt 0.000000 1.000000
vt 0.000000 0.000000
vt 0.038060 0.000000
vt 0.038060 0.038061
vt 1.000000 0.038061
vt 0.961939 0.038061
vt 0.961939 0.000000
vt 1.000000 0.000000
vt 0.038060 0.961939
vt 0.038060 1.000000
vt 0.961939 0.038060
vt 0.961940 0.000000
vt 1.000000 0.038060
vt 0.961939 0.961940
vt 1.000000 0.961940
vt 0.038061 0.038060
vt 0.000000 0.038060
vn -0.096957 -0.990539 0.096957
vn -0.380383 -0.920316 0.091006
vn -0.096957 -0.990539 -0.096957
vn -0.704672 -0.704672 0.082858
vn -0.380383 -0.920316 -0.091006
vn -0.920316 -0.380383 0.091006
vn -0.704672 -0.704672 -0.082858
vn -0.990539 -0.096957 0.096957
vn -0.920316 -0.380383 -0.091006
vn -0.096957 -0.096957 0.990539
vn -0.091006 -0.380383 0.920316
vn 0.083956 -0.380200 0.921049
vn -0.082858 -0.704672 0.704672
vn 0.074953 -0.705100 0.705100
vn -0.091006 -0.920316 0.380383
vn 0.083956 -0.921049 0.380200
vn 0.093753 -0.991150 0.093753
vn -0.920316 -0.091006 0.380383
vn -0.990539 0.096957 0.096957
vn -0.704672 -0.082858 0.704672
vn -0.920316 0.091006 0.380383
vn -0.380383 -0.091006 0.920316
vn -0.704672 0.082858 0.704672
vn -0.380383 0.091006 0.920316
vn 0.991150 -0.093753 0.093753
vn 0.921049 -0.380200 0.083956
vn 0.921049 -0.380200 -0.083956
vn 0.705100 -0.705100 0.074953
vn 0.705100 -0.705100 -0.074953
vn 0.380200 -0.921049 0.083956
vn 0.380200 -0.921049 -0.083956
vn 0.093753 -0.991150 -0.093753
vn 0.093753 -0.093753 0.991150
vn 0.380200 -0.083956 0.921049
vn 0.380200 0.083956 0.921049
vn 0.705100 -0.074953 0.705100
vn 0.705100 0.074953 0.705100
vn 0.921049 -0.083956 0.380200
vn 0.921049 0.083956 0.380200
vn 0.991150 0.093753 0.093753
vn -0.920316 0.380383 0.091006
vn -0.990539 0.096957 -0.096957
vn -0.704672 0.704672 0.082858
vn -0.920316 0.380383 -0.091006
vn -0.380383 0.920316 0.091006
vn -0.704672 0.704672 -0.082858
vn -0.096957 0.990539 0.096957
vn -0.380383 0.920316 -0.091006
vn -0.091006 0.920316 0.380383
vn 0.083956 0.921049 0.380200
vn -0.082858 0.704672 0.704672
vn 0.074953 0.705100 0.705100
vn -0.091006 0.380383 0.920316
vn 0.083956 0.380200 0.921049
vn -0.096957 0.096957 0.990539
vn 0.093753 0.093753 0.991150
vn 0.093753 0.991150 0.093753
vn 0.380200 0.921049 0.083956
vn 0.380200 0.921049 -0.083956
vn 0.705100 0.705100 0.074953
vn 0.705100 0.705100 -0.074953
vn 0.921049 0.380200 0.083956
vn 0.921049 0.380200 -0.083956
vn 0.991150 0.093753 -0.093753
vn -0.920316 0.091006 -0.380383
vn -0.990539 -0.096957 -0.096957
vn -0.704672 0.082858 -0.704672
vn -0.920316 -0.091006 -0.380383
vn -0.380383 0.091006 -0.920316
vn -0.704672 -0.082858 -0.704672
vn -0.096957 0.096957 -0.990539
vn -0.380383 -0.091006 -0.920316
vn -0.091006 0.380383 -0.920316
vn 0.093753 0.093753 -0.991150
vn -0.082858 0.704672 -0.704672
vn 0.083956 0.380200 -0.921049
vn -0.091006 0.920316 -0.380383
vn 0.074953 0.705100 -0.705100
vn -0.096957 0.990539 -0.096957
vn 0.083956 0.921049 -0.380200
vn 0.380200 0.083956 -0.921049
vn 0.380200 -0.083956 -0.921049
vn 0.705100 0.074953 -0.705100
vn 0.705100 -0.074953 -0.705100
vn 0.921049 0.083956 -0.380200
vn 0.921049 -0.083956 -0.380200
vn 0.991150 -0.093753 -0.093753
vn -0.091006 -0.920316 -0.380383
vn -0.082858 -0.704672 -0.704672
vn 0.083956 -0.921049 -0.380200
vn -0.091006 -0.380383 -0.920316
vn 0.074953 -0.705100 -0.705100
vn -0.096957 -0.096957 -0.990539
vn 0.083956 -0.380200 -0.921049
vn 0.093753 0.991150 -0.093753
vn -0.870632 -0.347819 0.347819
vn -0.674734 -0.674734 0.298959
vn -0.347819 -0.870632 0.347819
vn -0.298959 -0.674734 0.674734
vn -0.347819 -0.347819 0.870632
vn -0.674734 -0.298959 0.674734
vn 0.343242 -0.874264 0.343242
vn 0.676931 -0.676931 0.288919
vn 0.874264 -0.343242 0.343242
vn 0.676931 -0.288919 0.676931
vn 0.343242 -0.343242 0.874264
vn 0.288919 -0.676931 0.676931
vn 0.577349 -0.577349 0.577349
vn -0.347819 0.870632 0.347819
vn -0.674734 0.674734 0.298959
vn -0.870632 0.347819 0.347819
vn -0.674734 0.298959 0.674734
vn -0.347819 0.347819 0.870632
vn -0.298959 0.674734 0.674734
vn 0.874264 0.343242 0.343242
vn 0.676931 0.676931 0.288919
vn 0.343242 0.874264 0.343242
vn 0.288919 0.676931 0.676931
vn 0.343242 0.343242 0.874264
vn 0.676931 0.288919 0.676931
vn 0.577349 0.577349 0.577349
vn -0.347819 0.347819 -0.870632
vn -0.674734 0.298959 -0.674734
vn -0.870632 0.347819 -0.347819
vn -0.674734 0.674734 -0.298959
vn -0.347819 0.870632 -0.347819
vn -0.298959 0.674734 -0.674734
vn 0.874264 0.343242 -0.343242
vn 0.676931 0.288919 -0.676931
vn 0.343242 0.343242 -0.874264
vn 0.288919 0.676931 -0.676931
vn 0.343242 0.874264 -0.343242
vn 0.676931 0.676931 -0.288919
vn 0.577349 0.577349 -0.577349
vn -0.347819 -0.870632 -0.347819
vn -0.674734 -0.674734 -0.298959
vn -0.870632 -0.347819 -0.347819
vn -0.674734 -0.298959 -0.674734
vn -0.347819 -0.347819 -0.870632
vn -0.298959 -0.674734 -0.674734
vn 0.874264 -0.343242 -0.343242
vn 0.676931 -0.676931 -0.288919
vn 0.343242 -0.874264 -0.343242
vn 0.288919 -0.676931 -0.676931
vn 0.093753 -0.093753 -0.991150
vn 0.343242 -0.343242 -0.874264
vn 0.676931 -0.288919 -0.676931
vn 0.577349 -0.577349 -0.577349
vn -0.577349 -0.577349 0.577349
vn -0.577349 0.577349 0.577349
vn -0.577349 0.577349 -0.577349
vn -0.577349 -0.577349 -0.577349
usemtl None
s 1
f 1/1/1 2/2/2 4/3/3
f 2/2/2 5/4/4 3/5/5
f 5/6/4 7/7/6 6/8/7
f 7/7/6 9/1/8 8/9/9
f 11/1/10 12/2/11 13/5/12
f 12/2/11 15/4/13 16/10/14
f 15/6/13 17/11/15 18/12/16
f 17/11/15 1/1/1 19/13/17
f 9/1/8 20/14/18 22/3/19
f 20/14/18 23/4/20 21/15/21
f 23/6/20 25/11/22 24/8/23
f 25/11/22 11/1/10 26/12/24
f 28/1/25 29/2/26 30/5/27
f 29/2/26 32/4/28 33/10/29
f 32/16/28 34/17/30 35/18/31
f 34/17/30 19/13/17 36/19/32
f 14/3/33 37/20/34 38/21/35
f 37/20/34 40/22/36 41/23/37
f 40/6/36 42/11/38 43/12/39
f 42/11/38 28/1/25 44/13/40
f 22/3/19 45/20/41 47/19/42
f 45/20/41 48/22/43 46/21/44
f 48/6/43 50/11/45 49/8/46
f 50/11/45 52/1/47 51/12/48
f 52/1/47 54/2/49 55/5/50
f 54/2/49 57/4/51 58/10/52
f 57/16/51 59/17/53 60/18/54
f 59/17/53 27/13/55 39/19/56
f 56/3/57 61/20/58 62/21/59
f 61/20/58 64/22/60 65/23/61
f 64/16/60 66/17/62 67/18/63
f 66/17/62 44/13/40 68/19/64
f 47/19/42 69/18/65 10/13/66
f 69/18/65 71/24/67 70/17/68
f 71/6/67 73/11/69 72/8/70
f 73/11/69 75/1/71 74/12/72
f 75/1/71 77/14/73 79/3/74
f 77/14/73 80/4/75 78/15/76
f 80/16/75 82/17/77 81/24/78
f 82/17/77 53/13/79 83/18/80
f 79/3/74 84/20/81 85/21/82
f 84/20/81 87/22/83 88/23/84
f 87/23/83 89/25/85 90/26/86
f 89/25/85 68/19/64 31/3/87
f 4/3/3 91/20/88 36/19/32
f 91/20/88 93/22/89 92/21/90
f 93/16/89 95/17/91 94/24/92
f 95/17/91 76/13/93 96/18/94
f 11/1/10 14/3/33 39/19/56
f 52/1/47 56/3/57 63/19/95
f 75/1/71 79/3/74 76/13/93
f 19/13/17 1/1/1 36/19/32
f 28/1/25 31/3/87 68/19/64
f 10/13/66 9/1/8 47/19/42
f 20/14/18 9/1/8 7/7/6
f 97/27/96 7/7/6 5/6/4
f 98/28/97 5/4/4 99/29/98
f 2/2/2 1/1/1 17/11/15
f 99/29/98 17/11/15 15/6/13
f 100/28/99 15/4/13 101/29/100
f 12/2/11 11/1/10 25/11/22
f 101/29/100 25/11/22 23/6/20
f 102/30/101 23/4/20 97/27/96
f 102/30/101 97/27/96 98/31/97
f 98/28/97 99/29/98 100/31/99
f 100/28/99 101/29/100 102/31/101
f 18/12/16 19/13/17 104/32/102
f 104/32/102 34/17/30 105/33/103
f 105/28/103 32/4/28 29/2/26
f 29/2/26 28/1/25 106/29/104
f 106/29/104 42/11/38 107/31/105
f 107/34/105 40/22/36 37/20/34
f 37/20/34 14/3/33 108/35/106
f 108/35/106 13/5/12 109/36/107
f 109/37/107 16/8/14 18/12/16
f 109/37/107 104/32/102 110/38/108
f 105/28/103 106/29/104 110/39/108
f 107/34/105 108/35/106 110/40/108
f 54/2/49 52/1/47 50/11/45
f 111/29/109 50/11/45 48/6/43
f 112/41/110 48/22/43 113/42/111
f 45/20/41 22/3/19 21/15/21
f 113/42/111 21/15/21 24/10/23
f 114/37/112 24/8/23 115/32/113
f 26/12/24 27/13/55 59/17/53
f 115/32/113 59/17/53 57/16/51
f 116/28/114 57/4/51 111/29/109
f 116/28/114 111/29/109 112/31/110
f 112/41/110 113/42/111 114/36/112
f 114/37/112 115/32/113 116/33/114
f 43/12/39 44/13/40 118/32/115
f 118/32/115 66/17/62 119/33/116
f 119/34/116 64/22/60 61/20/58
f 61/20/58 56/3/57 120/35/117
f 120/35/117 55/5/50 121/36/118
f 121/43/118 58/24/52 60/18/54
f 60/18/54 39/19/56 122/44/119
f 122/44/119 38/21/35 123/45/120
f 123/37/120 41/8/37 43/12/39
f 123/37/120 118/32/115 124/38/121
f 119/34/116 120/35/117 124/40/121
f 121/43/118 122/44/119 124/46/121
f 77/14/73 75/1/71 73/11/69
f 125/47/122 73/11/69 71/6/67
f 126/43/123 71/24/67 127/44/124
f 69/18/65 47/19/42 46/21/44
f 127/44/124 46/21/44 49/23/46
f 128/37/125 49/8/46 129/32/126
f 51/12/48 53/13/79 82/17/77
f 129/32/126 82/17/77 80/16/75
f 130/28/127 80/4/75 125/47/122
f 130/28/127 125/47/122 126/48/123
f 126/43/123 127/44/124 128/45/125
f 128/37/125 129/32/126 130/33/127
f 67/18/63 68/19/64 132/49/128
f 132/49/128 89/25/85 133/50/129
f 133/41/129 87/22/83 84/20/81
f 84/20/81 79/3/74 134/42/130
f 134/42/130 78/15/76 135/36/131
f 135/43/131 81/24/78 83/18/80
f 83/18/80 63/19/95 136/44/132
f 136/44/132 62/21/59 137/45/133
f 137/51/133 65/24/61 67/18/63
f 137/51/133 132/49/128 138/46/134
f 133/41/129 134/42/130 138/40/134
f 135/43/131 136/44/132 138/46/134
f 91/20/88 4/3/3 3/5/5
f 139/35/135 3/5/5 6/10/7
f 140/37/136 6/8/7 141/52/137
f 8/9/9 10/13/66 70/17/68
f 141/52/137 70/17/68 72/16/70
f 142/37/138 72/8/70 143/32/139
f 74/12/72 76/13/93 95/17/91
f 143/32/139 95/17/91 93/16/89
f 144/34/140 93/22/89 139/35/135
f 144/34/140 139/35/135 140/36/136
f 140/37/136 141/52/137 142/53/138
f 142/37/138 143/32/139 144/33/140
f 90/26/86 31/3/87 146/54/141
f 146/54/141 30/5/27 147/55/142
f 147/43/142 33/24/29 35/18/31
f 35/18/31 36/19/32 148/44/143
f 148/44/143 92/21/90 149/45/144
f 149/43/144 94/24/92 96/18/94
f 96/18/94 86/19/145 150/44/146
f 150/44/146 85/21/82 151/45/147
f 151/34/147 88/22/84 90/26/86
f 151/34/147 146/54/141 152/40/148
f 147/43/142 148/44/143 152/46/148
f 149/43/144 150/44/146 152/46/148
f 2/2/2 3/5/5 4/3/3
f 5/4/4 6/10/7 3/5/5
f 7/7/6 8/9/9 6/8/7
f 9/1/8 10/13/66 8/9/9
f 14/3/33 11/1/10 13/5/12
f 13/5/12 12/2/11 16/10/14
f 16/8/14 15/6/13 18/12/16
f 18/12/16 17/11/15 19/13/17
f 20/14/18 21/15/21 22/3/19
f 23/4/20 24/10/23 21/15/21
f 25/11/22 26/12/24 24/8/23
f 11/1/10 27/13/55 26/12/24
f 31/3/87 28/1/25 30/5/27
f 30/5/27 29/2/26 33/10/29
f 33/24/29 32/16/28 35/18/31
f 35/18/31 34/17/30 36/19/32
f 39/19/56 14/3/33 38/21/35
f 38/21/35 37/20/34 41/23/37
f 41/8/37 40/6/36 43/12/39
f 43/12/39 42/11/38 44/13/40
f 45/20/41 46/21/44 47/19/42
f 48/22/43 49/23/46 46/21/44
f 50/11/45 51/12/48 49/8/46
f 52/1/47 53/13/79 51/12/48
f 56/3/57 52/1/47 55/5/50
f 55/5/50 54/2/49 58/10/52
f 58/24/52 57/16/51 60/18/54
f 60/18/54 59/17/53 39/19/56
f 63/19/95 56/3/57 62/21/59
f 62/21/59 61/20/58 65/23/61
f 65/24/61 64/16/60 67/18/63
f 67/18/63 66/17/62 68/19/64
f 69/18/65 70/17/68 10/13/66
f 71/24/67 72/16/70 70/17/68
f 73/11/69 74/12/72 72/8/70
f 75/1/71 76/13/93 74/12/72
f 77/14/73 78/15/76 79/3/74
f 80/4/75 81/10/78 78/15/76
f 82/17/77 83/18/80 81/24/78
f 53/13/79 63/19/95 83/18/80
f 86/19/145 79/3/74 85/21/82
f 85/21/82 84/20/81 88/23/84
f 88/22/84 87/23/83 90/26/86
f 90/26/86 89/25/85 31/3/87
f 91/20/88 92/21/90 36/19/32
f 93/22/89 94/23/92 92/21/90
f 95/17/91 96/18/94 94/24/92
f 76/13/93 86/19/145 96/18/94
f 27/13/55 11/1/10 39/19/56
f 53/13/79 52/1/47 63/19/95
f 79/3/74 86/19/145 76/13/93
f 1/1/1 4/3/3 36/19/32
f 44/13/40 28/1/25 68/19/64
f 9/1/8 22/3/19 47/19/42
f 97/27/96 20/14/18 7/7/6
f 98/31/97 97/27/96 5/6/4
f 5/4/4 2/2/2 99/29/98
f 99/29/98 2/2/2 17/11/15
f 100/31/99 99/29/98 15/6/13
f 15/4/13 12/2/11 101/29/100
f 101/29/100 12/2/11 25/11/22
f 102/31/101 101/29/100 23/6/20
f 23/4/20 20/14/18 97/27/96
f 103/39/149 102/30/101 98/31/97
f 103/39/149 98/28/97 100/31/99
f 103/39/149 100/28/99 102/31/101
f 19/13/17 34/17/30 104/32/102
f 34/17/30 32/16/28 105/33/103
f 106/29/104 105/28/103 29/2/26
f 28/1/25 42/11/38 106/29/104
f 42/11/38 40/6/36 107/31/105
f 108/35/106 107/34/105 37/20/34
f 14/3/33 13/5/12 108/35/106
f 13/5/12 16/10/14 109/36/107
f 104/32/102 109/37/107 18/12/16
f 104/32/102 105/33/103 110/38/108
f 106/29/104 107/31/105 110/39/108
f 108/35/106 109/36/107 110/40/108
f 111/29/109 54/2/49 50/11/45
f 112/31/110 111/29/109 48/6/43
f 48/22/43 45/20/41 113/42/111
f 113/42/111 45/20/41 21/15/21
f 114/36/112 113/42/111 24/10/23
f 24/8/23 26/12/24 115/32/113
f 115/32/113 26/12/24 59/17/53
f 116/33/114 115/32/113 57/16/51
f 57/4/51 54/2/49 111/29/109
f 117/39/150 116/28/114 112/31/110
f 117/40/150 112/41/110 114/36/112
f 117/38/150 114/37/112 116/33/114
f 44/13/40 66/17/62 118/32/115
f 66/17/62 64/16/60 119/33/116
f 120/35/117 119/34/116 61/20/58
f 56/3/57 55/5/50 120/35/117
f 55/5/50 58/10/52 121/36/118
f 122/44/119 121/43/118 60/18/54
f 39/19/56 38/21/35 122/44/119
f 38/21/35 41/23/37 123/45/120
f 118/32/115 123/37/120 43/12/39
f 118/32/115 119/33/116 124/38/121
f 120/35/117 121/36/118 124/40/121
f 122/44/119 123/45/120 124/46/121
f 125/47/122 77/14/73 73/11/69
f 126/48/123 125/47/122 71/6/67
f 71/24/67 69/18/65 127/44/124
f 127/44/124 69/18/65 46/21/44
f 128/45/125 127/44/124 49/23/46
f 49/8/46 51/12/48 129/32/126
f 129/32/126 51/12/48 82/17/77
f 130/33/127 129/32/126 80/16/75
f 80/4/75 77/14/73 125/47/122
f 131/39/151 130/28/127 126/48/123
f 131/46/151 126/43/123 128/45/125
f 131/38/151 128/37/125 130/33/127
f 68/19/64 89/25/85 132/49/128
f 89/25/85 87/23/83 133/50/129
f 134/42/130 133/41/129 84/20/81
f 79/3/74 78/15/76 134/42/130
f 78/15/76 81/10/78 135/36/131
f 136/44/132 135/43/131 83/18/80
f 63/19/95 62/21/59 136/44/132
f 62/21/59 65/23/61 137/45/133
f 132/49/128 137/51/133 67/18/63
f 132/49/128 133/50/129 138/46/134
f 134/42/130 135/36/131 138/40/134
f 136/44/132 137/45/133 138/46/134
f 139/35/135 91/20/88 3/5/5
f 140/36/136 139/35/135 6/10/7
f 6/8/7 8/9/9 141/52/137
f 141/52/137 8/9/9 70/17/68
f 142/53/138 141/52/137 72/16/70
f 72/8/70 74/12/72 143/32/139
f 143/32/139 74/12/72 95/17/91
f 144/33/140 143/32/139 93/16/89
f 93/22/89 91/20/88 139/35/135
f 145/40/152 144/34/140 140/36/136
f 145/38/152 140/37/136 142/53/138
f 145/38/152 142/37/138 144/33/140
f 31/3/87 30/5/27 146/54/141
f 30/5/27 33/10/29 147/55/142
f 148/44/143 147/43/142 35/18/31
f 36/19/32 92/21/90 148/44/143
f 92/21/90 94/23/92 149/45/144
f 150/44/146 149/43/144 96/18/94
f 86/19/145 85/21/82 150/44/146
f 85/21/82 88/23/84 151/45/147
f 146/54/141 151/34/147 90/26/86
f 146/54/141 147/55/142 152/40/148
f 148/44/143 149/45/144 152/46/148
f 150/44/146 151/45/147 152/46/148
