# This file is brought to you by Roblox Corporation
# Generated by Roblox Studio

mtllib cornerwedge.mtl

g Cornerwedge1

v 1 1 -1 
v 1 1 -1 
v 1 -1 -1 
v 1 -1 1 
v 1 1 -1 
v 1 1 -1 
v 1 -1 1 
v -1 -1 1 
v 1 1 -1 
v 1 1 -1 
v -1 -1 1 
v -1 -1 -1 
v -1 -1 -1 
v 1 -1 -1 
v -1 -1 1 
v 1 -1 1 
v 1 1 -1 
v 1 1 -1 
v -1 -1 -1 
v 1 -1 -1 

vn 1 0 0 
vn 1 0 0 
vn 1 0 0 
vn 1 0 0 
vn 0 0.708661 0.708661 
vn 0 0.708661 0.708661 
vn 0 0.708661 0.708661 
vn 0 0.708661 0.708661 
vn -0.708661 0.708661 0 
vn -0.708661 0.708661 0 
vn -0.708661 0.708661 0 
vn -0.708661 0.708661 0 
vn 0 -1 0 
vn 0 -1 0 
vn 0 -1 0 
vn 0 -1 0 
vn 0 0 -1 
vn 0 0 -1 
vn 0 0 -1 
vn 0 0 -1 

vt 1.62534 3.10231 
vt 1.62534 3.10231 
vt 1.62534 0.502311 
vt -0.974657 0.502311 
vt 1.62534 3.10231 
vt 1.62534 3.10231 
vt 1.62534 -0.574644 
vt -0.974657 -0.574644 
vt -0.974657 3.10231 
vt -0.974657 3.10231 
vt 1.62534 -0.574644 
vt -0.974657 -0.574644 
vt 1.62534 3.10231 
vt -0.974657 3.10231 
vt 1.62534 0.502311 
vt -0.974657 0.502311 
vt -0.974657 3.10231 
vt -0.974657 3.10231 
vt 1.62534 0.502311 
vt -0.974657 0.502311 

usemtl Cornerwedge1Mtl

f 1/1/1 2/2/2 3/3/3 
f 3/3/3 2/2/2 4/4/4 
f 5/5/5 6/6/6 7/7/7 
f 7/7/7 6/6/6 8/8/8 
f 9/9/9 10/10/10 11/11/11 
f 11/11/11 10/10/10 12/12/12 
f 13/13/13 14/14/14 15/15/15 
f 15/15/15 14/14/14 16/16/16 
f 17/17/17 18/18/18 19/19/19 
f 19/19/19 18/18/18 20/20/20 

