# Blender v2.77 (sub 0) OBJ File: ''
# www.blender.org
mtllib cube.mtl
o Cube
v  1.000000 -1.000000 -1.000000
v  1.000000 -1.000000  1.000000
v -1.000000 -1.000000  1.000000
v -1.000000 -1.000000 -1.000000
v  1.000000  1.000000 -1.000000
v  1.000000  1.000000  1.000000
v -1.000000  1.000000  1.000000
v -1.000000  1.000000 -1.000000
vn 0.0000 -1.0000 0.0000
vn 0.0000 1.0000 0.0000
vn 1.0000 -0.0000 0.0000
vn 0.0000 -0.0000 1.0000
vn -1.0000 -0.0000 -0.0000
vn 0.0000 0.0000 -1.0000
usemtl Material
s off

vt 0.0000 0.0000
vt 1.0000 0.0000
vt 0.0000 1.0000
vt 1.0000 1.0000

g 0

f 1/1/6 8/4/6 5/3/6
f 1/1/6 4/2/6 8/4/6

g 1

f 6/4/4  3/1/4 2/2/4
f 6/4/4  7/3/4 3/1/4

g 2

f 5/4/3  2/1/3  1/2/3
f 5/4/3  6/3/3 2/1/3

g 3

f 3/2/5 8/3/5 4/1/5
f 3/2/5 7/4/5 8/3/5

g 4

f 8/3/2  6/2/2  5/4/2
f 8/3/2  7/1/2 6/2/2

g 5

f 2/4/1  4/1/1  1/2/1
f 2/4/1  3/3/1 4/1/1
