# Blender v2.67 (sub 0) OBJ File: ''
# www.blender.org
mtllib BevelCube.mtl
o BevelCube.001
v 6.619804 -5.553761 7.400202
v 7.400204 -5.553759 6.619802
v 7.400204 5.553755 6.619806
v 6.619804 5.553755 7.400206
v 6.619804 -7.400202 -5.553761
v 6.619804 -7.400206 5.553755
v 5.553757 -7.685852 5.553755
v 5.553757 -7.685848 -5.553761
v 6.619804 7.400206 -5.553755
v 6.619804 7.400202 5.553761
v 7.400204 6.619802 5.553759
v 7.400204 6.619806 -5.553755
v -7.685850 5.553759 -5.553755
v -7.400204 5.553759 -6.619802
v -7.400204 -5.553755 -6.619806
v -7.685850 -5.553755 -5.553759
v -5.553757 -5.553755 -7.685852
v -5.553757 5.553761 -7.685848
v 5.553757 5.553761 -7.685848
v 5.553757 -5.553755 -7.685852
v 7.152827 6.548394 -6.548390
v 6.548392 7.152829 -6.548390
v 5.553757 5.553755 7.685852
v -5.553757 5.553755 7.685852
v -5.553757 -5.553761 7.685848
v 5.553757 -5.553761 7.685848
v -6.619804 7.400206 -5.553755
v -6.619804 7.400202 5.553761
v -5.553757 7.685848 5.553761
v -5.553757 7.685852 -5.553755
v 5.553757 -6.619801 -7.400206
v -5.553757 -6.619801 -7.400206
v 5.553757 7.400206 -6.619801
v 5.553757 6.619806 -7.400202
v -5.553757 6.619806 -7.400202
v -5.553757 7.400206 -6.619801
v -6.619804 5.553761 -7.400202
v -6.619804 -5.553755 -7.400206
v 7.685850 -5.553759 5.553755
v 7.400204 -6.619806 5.553755
v 7.400204 -6.619802 -5.553759
v 7.685850 -5.553755 -5.553759
v -6.619804 -5.553761 7.400202
v -6.619804 5.553755 7.400206
v -7.400204 5.553755 6.619806
v -7.400204 -5.553759 6.619802
v 5.553757 -6.619806 7.400202
v -5.553757 -6.619806 7.400202
v -5.553757 -7.685852 5.553755
v -6.619804 -7.400206 5.553755
v -6.619804 -7.400202 -5.553761
v -5.553757 -7.685848 -5.553761
v 5.553757 7.685852 -5.553755
v 7.400204 5.553759 -6.619802
v 7.400204 -5.553755 -6.619806
v 6.619804 -5.553755 -7.400206
v 6.619804 5.553761 -7.400202
v 5.553757 7.400202 6.619806
v 5.553757 7.685848 5.553761
v -5.553757 7.400202 6.619806
v 7.685850 5.553755 5.553759
v 7.152827 6.548390 6.548394
v 6.548392 6.548394 -7.152825
v 6.548392 -6.548394 7.152825
v 7.152827 -6.548394 6.548390
v -5.553757 -7.400206 6.619801
v -6.548392 -7.152829 6.548390
v -6.548392 -6.548394 7.152825
v -7.152827 6.548390 6.548394
v -6.548392 6.548390 7.152829
v -6.548392 7.152825 6.548394
v -7.685850 5.553755 5.553759
v -7.400204 6.619802 5.553759
v 5.553757 6.619801 7.400206
v 6.548392 6.548390 7.152829
v 6.548392 7.152825 6.548394
v 6.548392 -7.152829 6.548390
v 5.553757 -7.400206 6.619801
v 7.152827 -6.548390 -6.548394
v 6.548392 -6.548390 -7.152829
v -6.548392 6.548394 -7.152825
v -7.685850 -5.553759 5.553755
v -5.553757 6.619801 7.400206
v -7.400204 6.619806 -5.553755
v -7.152827 6.548394 -6.548390
v -6.548392 7.152829 -6.548390
v -6.548392 -6.548390 -7.152829
v -7.152827 -6.548390 -6.548394
v -7.400204 -6.619802 -5.553759
v -7.400204 -6.619806 5.553755
v 7.685850 5.553759 -5.553755
v 6.548392 -7.152825 -6.548394
v -6.548392 -7.152825 -6.548394
v -5.553757 -7.400202 -6.619806
v 5.553757 -7.400202 -6.619806
v -7.152827 -6.548394 6.548390
vt 0.114974 0.036119
vt 0.108800 -0.042393
vt 0.901957 -0.043193
vt 0.966126 0.110037
vt 0.966301 0.887730
vt 0.889795 0.887694
vt 0.965802 0.887721
vt 0.966263 0.110028
vt 1.043976 0.107584
vt 0.112835 0.889004
vt 0.035425 0.890298
vt 0.112842 0.110778
vt 0.116514 0.887792
vt 0.116830 0.112051
vt 0.893042 0.887659
vt 1.043373 0.890388
vt 1.029804 0.964123
vt 0.893175 0.111489
vt 0.892992 0.887588
vt 0.116926 0.887823
vt 0.035237 0.887533
vt 0.035330 0.109842
vt 0.111696 0.887425
vt 0.114321 0.963604
vt 0.900567 -0.041892
vt 0.894472 0.036404
vt 0.108688 -0.041894
vt -0.037001 0.103619
vt 0.041308 0.109887
vt -0.038729 0.895938
vt 0.114883 0.892525
vt 0.037472 0.893822
vt 0.037441 0.112995
vt 0.114627 0.963747
vt 0.895128 0.963194
vt 0.108142 1.042504
vt 0.892461 0.111920
vt 0.041546 0.109640
vt 0.117110 0.111724
vt 0.111937 0.887761
vt 0.035369 0.887865
vt 0.111958 0.110239
vt 0.889405 0.887627
vt 0.892125 0.965461
vt 1.046426 0.103451
vt 1.048150 0.895767
vt 0.969145 0.889633
vt 0.892405 0.032227
vt 0.889696 0.110106
vt 0.111837 0.109904
vt 0.893109 0.892520
vt 0.970531 0.893825
vt 0.967716 0.967139
vt 0.979065 -0.021713
vt 0.044329 0.038707
vt 0.031281 -0.022503
vt 0.109255 0.965641
vt -0.037412 0.895849
vt 0.041168 0.889864
vt -0.017873 0.973525
vt 0.978822 1.021816
vt 0.965774 0.960606
vt 1.026650 0.974390
vt 0.891061 0.889026
vt 0.968475 0.890318
vt 0.892365 0.966449
vt 1.047512 0.103463
vt 0.968931 0.109447
vt 0.966597 0.038604
vt 0.968079 0.960451
vt 1.027543 0.974895
vt 0.114768 0.036523
vt -0.036803 0.103475
vt -0.016547 0.024923
vt 0.980694 -0.022397
vt 1.027973 0.025787
vt 0.967997 0.109704
vt 0.891067 0.110800
vt 1.046906 0.895837
vt 0.109099 0.032012
vt 0.895473 0.035565
vt 0.967827 0.037262
vt 1.030692 0.033807
vt 0.111538 0.966415
vt -0.042370 0.107209
vt 0.033577 0.037119
vt 0.044181 0.039017
vt -0.016624 0.025156
vt 0.031235 -0.022147
vt 0.889668 0.110172
vt 0.040400 0.889821
vt -0.018588 0.974016
vt 0.968557 0.889673
vt 0.113589 0.969934
vt 0.040280 0.967130
vt 1.026486 0.026030
vt 0.965346 0.039121
vt -0.042011 0.107532
vt 0.035561 0.110171
vt -0.042343 0.890336
vt 0.893089 0.114295
vt 0.970500 0.112997
vt 0.892560 0.965583
vt 0.894384 0.036885
vt 0.967692 0.039689
vt 1.043709 0.107532
vt 1.030408 0.033886
vt -0.042346 0.890011
vt -0.029070 0.963662
vt 0.967542 0.960346
vt 0.029222 1.022046
vt 0.043011 0.960836
vt 0.901302 1.041707
vt 0.109212 0.032406
vt 0.108174 1.042187
vt 0.979305 1.022460
vt 0.966310 0.960941
vt 0.111538 0.033356
vt 0.892365 0.033389
vt 0.114863 0.114299
vt 0.109004 0.965247
vt 1.044002 0.890336
vt 1.030447 0.964202
vt 0.035427 0.109486
vt 0.892332 0.032349
vt 0.967654 0.037366
vt 0.043503 0.960708
vt 0.029406 1.021709
vt 0.895287 0.963486
vt 0.968477 0.109506
vt -0.029033 0.964109
vt 0.033797 0.037547
vt 0.040256 0.039681
vt 0.901419 1.042188
vt 0.894401 0.969935
vt 0.033831 0.960632
vt 0.965679 0.963633
vt 0.038229 0.963607
vt -0.028791 0.033347
vt 0.033685 0.960204
vt 0.113571 0.036885
vt 0.038223 0.036171
vt 0.965673 0.036197
vt -0.028467 0.033791
vn 0.492447 -0.120640 0.861934
vn 0.861934 -0.120640 0.492447
vn 0.861934 0.120640 0.492447
vn 0.492447 -0.861934 -0.120640
vn 0.492447 -0.861934 0.120640
vn 0.128147 -0.983428 0.128147
vn 0.492447 0.861934 -0.120640
vn 0.492447 0.861934 0.120640
vn 0.861934 0.492447 0.120640
vn -0.983428 0.128147 -0.128147
vn -0.861934 0.120640 -0.492447
vn -0.983428 -0.128147 -0.128147
vn -0.128147 -0.128147 -0.983428
vn -0.128147 0.128147 -0.983428
vn 0.128147 -0.128147 -0.983428
vn 0.861934 0.492447 -0.120640
vn 0.777886 0.444319 -0.444319
vn 0.128147 0.128147 0.983428
vn -0.128147 0.128147 0.983428
vn -0.128147 -0.128147 0.983428
vn -0.492447 0.861934 -0.120640
vn -0.492447 0.861934 0.120640
vn -0.128147 0.983428 -0.128147
vn -0.120640 -0.492447 -0.861934
vn 0.120640 0.861934 -0.492447
vn 0.120640 0.492447 -0.861934
vn -0.120640 0.861934 -0.492447
vn -0.492447 0.120640 -0.861934
vn -0.861934 -0.120640 -0.492447
vn 0.983428 -0.128147 0.128147
vn 0.861934 -0.492447 0.120640
vn 0.861934 -0.492447 -0.120640
vn -0.492447 -0.120640 0.861934
vn -0.492447 0.120640 0.861934
vn -0.861934 -0.120640 0.492447
vn 0.128147 0.128147 -0.983428
vn 0.120640 -0.492447 0.861934
vn 0.128147 -0.128147 0.983428
vn -0.128147 -0.983428 0.128147
vn -0.492447 -0.861934 0.120640
vn -0.128147 -0.983428 -0.128147
vn 0.128147 0.983428 -0.128147
vn 0.861934 0.120640 -0.492447
vn 0.861934 -0.120640 -0.492447
vn 0.492447 -0.120640 -0.861934
vn 0.120640 0.861934 0.492447
vn 0.128147 0.983428 0.128147
vn -0.128147 0.983428 0.128147
vn 0.983428 0.128147 0.128147
vn 0.777886 0.444319 0.444319
vn 0.444319 0.777886 -0.444319
vn 0.444319 -0.444319 0.777886
vn 0.777886 -0.444319 0.444319
vn -0.120640 -0.861934 0.492447
vn -0.120640 -0.492447 0.861934
vn -0.444319 -0.777886 0.444319
vn -0.777886 0.444319 0.444319
vn -0.444319 0.444319 0.777886
vn -0.444319 0.777886 0.444319
vn -0.983428 0.128147 0.128147
vn -0.861934 0.120640 0.492447
vn -0.861934 0.492447 0.120640
vn 0.120640 0.492447 0.861934
vn 0.444319 0.444319 0.777886
vn 0.444319 -0.777886 0.444319
vn 0.777886 -0.444319 -0.444319
vn -0.120640 0.492447 -0.861934
vn 0.120640 -0.861934 0.492447
vn 0.444319 0.777886 0.444319
vn 0.492447 0.120640 -0.861934
vn -0.983428 -0.128147 0.128147
vn -0.120640 0.861934 0.492447
vn 0.492447 0.120640 0.861934
vn -0.861934 0.492447 -0.120640
vn -0.444319 0.444319 -0.777886
vn -0.777886 0.444319 -0.444319
vn -0.444319 0.777886 -0.444319
vn 0.128147 -0.983428 -0.128147
vn -0.492447 -0.120640 -0.861934
vn -0.777886 -0.444319 -0.444319
vn -0.120640 0.492447 0.861934
vn 0.444319 0.444319 -0.777886
vn -0.861934 -0.492447 -0.120640
vn -0.492447 -0.861934 -0.120640
vn -0.861934 -0.492447 0.120640
vn 0.983428 0.128147 -0.128147
vn -0.444319 -0.777886 -0.444319
vn -0.444319 -0.444319 -0.777886
vn -0.120640 -0.861934 -0.492447
vn 0.444319 -0.777886 -0.444319
vn 0.444319 -0.444319 -0.777886
vn 0.983428 -0.128147 -0.128147
vn 0.120640 -0.861934 -0.492447
vn -0.444319 -0.444319 0.777886
vn -0.777886 -0.444319 0.444319
vn 0.120640 -0.492447 -0.861934
usemtl None.001
s 1
f 1/1/1 2/2/2 3/3/3
f 5/4/4 6/5/5 7/6/6
f 9/7/7 10/8/8 11/9/9
f 13/10/10 14/11/11 16/12/12
f 17/13/13 18/14/14 20/15/15
f 9/7/7 12/16/16 21/17/17
f 23/18/18 24/19/19 25/20/20
f 27/21/21 28/22/22 30/23/23
f 17/13/13 20/15/15 32/24/24
f 33/25/25 34/26/26 36/27/27
f 14/28/11 37/29/28 15/30/29
f 39/31/30 40/32/31 41/33/32
f 43/34/33 44/35/34 46/36/35
f 19/37/36 18/14/14 34/26/26
f 47/38/37 26/39/38 25/20/20
f 49/40/39 50/41/40 52/42/41
f 53/43/42 33/44/25 30/23/23
f 54/45/43 55/46/44 56/47/45
f 24/19/19 44/35/34 25/20/20
f 58/48/46 59/49/47 29/50/48
f 61/51/49 11/52/9 62/53/50
f 34/26/26 33/25/25 22/54/51
f 64/55/52 1/1/1 26/39/38
f 2/2/2 1/1/1 65/56/53
f 49/40/39 66/57/54 50/41/40
f 66/58/54 48/59/55 67/60/56
f 69/61/57 70/62/58 71/63/59
f 72/64/60 45/65/61 73/66/62
f 58/67/46 74/68/63 75/69/64
f 7/6/6 6/5/5 77/70/65
f 56/47/45 55/46/44 79/71/66
f 18/14/14 37/29/28 35/72/67
f 47/38/37 78/73/68 77/74/65
f 75/69/64 62/75/50 76/76/69
f 57/77/70 56/47/45 20/15/15
f 16/12/12 82/78/71 13/10/10
f 9/7/7 53/43/42 59/49/47
f 18/14/14 17/13/13 37/29/28
f 74/68/63 58/67/46 60/79/72
f 24/19/19 23/18/18 74/68/63
f 29/50/48 28/22/22 60/80/72
f 4/81/73 3/3/3 62/75/50
f 59/49/47 58/48/46 76/82/69
f 11/9/9 10/8/8 62/83/50
f 13/10/10 84/84/74 14/11/11
f 28/22/22 73/85/62 71/86/59
f 81/87/75 85/88/76 86/89/77
f 52/42/41 8/90/78 49/40/39
f 23/18/18 4/81/73 75/69/64
f 15/30/29 38/91/79 88/92/80
f 24/19/19 83/93/81 44/35/34
f 83/93/81 60/79/72 70/62/58
f 39/31/30 2/94/2 65/95/53
f 37/29/28 14/28/11 81/87/75
f 21/96/17 63/97/82 22/54/51
f 89/98/83 51/99/84 90/100/85
f 59/49/47 53/43/42 30/23/23
f 61/51/49 91/101/86 12/102/16
f 49/40/39 7/6/6 78/103/68
f 91/101/86 54/104/43 21/105/17
f 41/106/32 5/4/4 79/107/66
f 19/37/36 34/26/26 63/97/82
f 84/108/74 27/21/21 85/109/76
f 53/43/42 9/7/7 22/110/51
f 93/111/87 88/92/80 87/112/88
f 17/13/13 32/24/24 38/91/79
f 45/113/61 44/35/34 69/61/57
f 52/42/41 51/99/84 94/114/89
f 32/24/24 94/115/89 87/112/88
f 25/20/20 43/34/33 48/59/55
f 36/27/27 35/72/67 86/89/77
f 79/71/66 92/116/90 80/117/91
f 89/118/83 90/119/85 16/12/12
f 54/104/43 91/101/86 42/120/92
f 39/31/30 42/120/92 91/101/86
f 30/23/23 36/121/27 27/21/21
f 6/5/5 40/122/31 65/123/53
f 16/12/12 15/124/29 89/118/83
f 54/45/43 57/77/70 21/96/17
f 8/90/78 95/125/93 92/126/90
f 43/34/33 46/36/35 68/127/94
f 68/127/94 96/128/95 67/60/56
f 41/106/32 40/122/31 6/5/5
f 32/24/24 31/129/96 94/115/89
f 82/78/71 90/119/85 46/130/35
f 90/100/85 50/41/40 96/131/95
f 20/15/15 56/47/45 80/117/91
f 51/99/84 89/98/83 93/132/87
f 42/120/92 41/33/32 79/133/66
f 95/134/93 31/129/96 80/117/91
f 65/56/53 64/55/52 77/74/65
f 84/108/74 73/85/62 27/21/21
f 2/94/2 39/31/30 61/51/49
f 52/42/41 94/114/89 8/90/78
f 47/38/37 48/59/55 66/58/54
f 1/1/1 4/81/73 23/18/18
f 82/78/71 46/130/35 72/64/60
f 72/64/60 73/66/62 13/10/10
f 4/81/73 1/1/1 3/3/3
f 8/90/78 5/4/4 7/6/6
f 12/16/16 9/7/7 11/9/9
f 14/11/11 15/124/29 16/12/12
f 18/14/14 19/37/36 20/15/15
f 22/110/51 9/7/7 21/17/17
f 26/39/38 23/18/18 25/20/20
f 28/22/22 29/50/48 30/23/23
f 20/15/15 31/129/96 32/24/24
f 34/26/26 35/72/67 36/27/27
f 37/29/28 38/91/79 15/30/29
f 42/120/92 39/31/30 41/33/32
f 44/35/34 45/113/61 46/36/35
f 18/14/14 35/72/67 34/26/26
f 48/59/55 47/38/37 25/20/20
f 50/41/40 51/99/84 52/42/41
f 33/44/25 36/121/27 30/23/23
f 57/77/70 54/45/43 56/47/45
f 44/35/34 43/34/33 25/20/20
f 60/80/72 58/48/46 29/50/48
f 3/135/3 61/51/49 62/53/50
f 63/97/82 34/26/26 22/54/51
f 47/38/37 64/55/52 26/39/38
f 1/1/1 64/55/52 65/56/53
f 66/57/54 67/136/56 50/41/40
f 48/59/55 68/127/94 67/60/56
f 45/65/61 69/137/57 73/66/62
f 76/76/69 58/67/46 75/69/64
f 78/103/68 7/6/6 77/70/65
f 80/117/91 56/47/45 79/71/66
f 37/29/28 81/87/75 35/72/67
f 64/55/52 47/38/37 77/74/65
f 19/37/36 57/77/70 20/15/15
f 82/78/71 72/64/60 13/10/10
f 10/8/8 9/7/7 59/49/47
f 17/13/13 38/91/79 37/29/28
f 83/93/81 74/68/63 60/79/72
f 83/93/81 24/19/19 74/68/63
f 28/22/22 71/86/59 60/80/72
f 75/69/64 4/81/73 62/75/50
f 10/8/8 59/49/47 76/82/69
f 10/8/8 76/82/69 62/83/50
f 84/84/74 85/138/76 14/11/11
f 73/85/62 69/139/57 71/86/59
f 8/90/78 7/6/6 49/40/39
f 74/68/63 23/18/18 75/69/64
f 38/91/79 87/112/88 88/92/80
f 83/93/81 70/62/58 44/35/34
f 60/79/72 71/63/59 70/62/58
f 40/32/31 39/31/30 65/95/53
f 14/28/11 85/88/76 81/87/75
f 51/99/84 50/41/40 90/100/85
f 29/50/48 59/49/47 30/23/23
f 11/52/9 61/51/49 12/102/16
f 66/57/54 49/40/39 78/103/68
f 12/102/16 91/101/86 21/105/17
f 5/4/4 92/126/90 79/107/66
f 57/77/70 19/37/36 63/97/82
f 27/21/21 86/140/77 85/109/76
f 33/44/25 53/43/42 22/110/51
f 32/24/24 87/112/88 38/91/79
f 44/35/34 70/62/58 69/61/57
f 51/99/84 93/132/87 94/114/89
f 94/115/89 93/111/87 87/112/88
f 43/34/33 68/127/94 48/59/55
f 35/72/67 81/87/75 86/89/77
f 90/119/85 82/78/71 16/12/12
f 55/141/44 54/104/43 42/120/92
f 61/51/49 39/31/30 91/101/86
f 36/121/27 86/140/77 27/21/21
f 77/70/65 6/5/5 65/123/53
f 15/124/29 88/142/80 89/118/83
f 57/77/70 63/97/82 21/96/17
f 5/4/4 8/90/78 92/126/90
f 46/36/35 96/128/95 68/127/94
f 5/4/4 41/106/32 6/5/5
f 31/129/96 95/134/93 94/115/89
f 90/119/85 96/143/95 46/130/35
f 50/41/40 67/136/56 96/131/95
f 31/129/96 20/15/15 80/117/91
f 89/98/83 88/144/80 93/132/87
f 55/141/44 42/120/92 79/133/66
f 92/116/90 95/134/93 80/117/91
f 73/85/62 28/22/22 27/21/21
f 3/135/3 2/94/2 61/51/49
f 94/114/89 95/125/93 8/90/78
f 78/73/68 47/38/37 66/58/54
f 26/39/38 1/1/1 23/18/18
f 46/130/35 45/65/61 72/64/60
f 73/66/62 84/84/74 13/10/10
