v -256 -70 -257.531
v -256 -73.7656 -255.766
v -259.766 -70 -255.766
v -259.766 -70 -255.766
v -256 -73.7656 -255.766
v -259.177 -73.1771 -255.177
v -256 -66 -257.531
v -256 -70 -257.531
v -259.766 -66 -255.766
v -259.766 -66 -255.766
v -256 -70 -257.531
v -259.766 -70 -255.766
v -256 -62 -257.531
v -256 -66 -257.531
v -259.766 -62 -255.766
v -259.766 -62 -255.766
v -256 -66 -257.531
v -259.766 -66 -255.766
v -256 -58 -257.531
v -256 -62 -257.531
v -259.766 -58 -255.766
v -259.766 -58 -255.766
v -256 -62 -257.531
v -259.766 -62 -255.766
v -256 -54 -257.531
v -256 -58 -257.531
v -259.766 -54 -255.766
v -259.766 -54 -255.766
v -256 -58 -257.531
v -259.766 -58 -255.766
v -256 -50 -257.531
v -256 -54 -257.531
v -259.766 -50 -255.766
v -259.766 -50 -255.766
v -256 -54 -257.531
v -259.766 -54 -255.766
v -256 -46 -257.531
v -256 -50 -257.531
v -259.766 -46 -255.766
v -259.766 -46 -255.766
v -256 -50 -257.531
v -259.766 -50 -255.766
v -264 -42 -260
v -267.039 -41.0391 -260
v -264 -41.5 -263.5
v -264 -41.5 -263.5
v -267.039 -41.0391 -260
v -266.667 -40.6667 -262.667
v -260 -42 -260
v -264 -42 -260
v -260 -42 -264
v -260 -42 -264
v -264 -42 -260
v -264 -41.5 -263.5
v -256 -42 -260
v -260 -42 -260
v -256 -42 -264
v -256 -42 -264
v -260 -42 -260
v -260 -42 -264
v -264 -42 -256
v -267.117 -41.1172 -256
v -264 -42 -260
v -264 -42 -260
v -267.117 -41.1172 -256
v -267.039 -41.0391 -260
v -260.306 -42 -256.306
v -264 -42 -256
v -260 -42 -260
v -260 -42 -260
v -264 -42 -256
v -264 -42 -260
v -256 -42 -257.766
v -260.306 -42 -256.306
v -256 -42 -260
v -256 -42 -260
v -260.306 -42 -256.306
v -260 -42 -260
v -256 -42 -257.766
v -256 -46 -257.531
v -260.306 -42 -256.306
v -260.306 -42 -256.306
v -256 -46 -257.531
v -259.766 -46 -255.766
v -264 -38 -265
v -264 -41.5 -263.5
v -267 -38 -263
v -267 -38 -263
v -264 -41.5 -263.5
v -266.667 -40.6667 -262.667
v -260 -38 -266
v -260 -42 -264
v -264 -38 -265
v -264 -38 -265
v -260 -42 -264
v -264 -41.5 -263.5
v -256 -38 -266
v -256 -42 -264
v -260 -38 -266
v -260 -38 -266
v -256 -42 -264
v -260 -42 -264
v -268.078 -38 -260
v -267 -38 -263
v -267.039 -41.0391 -260
v -267.039 -41.0391 -260
v -267 -38 -263
v -266.667 -40.6667 -262.667
v -268.234 -38 -256
v -268.078 -38 -260
v -267.117 -41.1172 -256
v -267.117 -41.1172 -256
v -268.078 -38 -260
v -267.039 -41.0391 -260
v -264 -34 -265
v -264 -38 -265
v -267 -34 -263
v -267 -34 -263
v -264 -38 -265
v -267 -38 -263
v -260 -34 -266
v -260 -38 -266
v -264 -34 -265
v -264 -34 -265
v -260 -38 -266
v -264 -38 -265
v -256 -34 -266
v -256 -38 -266
v -260 -34 -266
v -260 -34 -266
v -256 -38 -266
v -260 -38 -266
v -268.078 -34 -260
v -267 -34 -263
v -268.078 -38 -260
v -268.078 -38 -260
v -267 -34 -263
v -267 -38 -263
v -268.234 -34 -256
v -268.078 -34 -260
v -268.234 -38 -256
v -268.234 -38 -256
v -268.078 -34 -260
v -268.078 -38 -260
v -264 -30 -265
v -264 -34 -265
v -267 -30 -263
v -267 -30 -263
v -264 -34 -265
v -267 -34 -263
v -260 -30 -266
v -260 -34 -266
v -264 -30 -265
v -264 -30 -265
v -260 -34 -266
v -264 -34 -265
v -256 -30 -266
v -256 -34 -266
v -260 -30 -266
v -260 -30 -266
v -256 -34 -266
v -260 -34 -266
v -268.078 -30 -260
v -267 -30 -263
v -268.078 -34 -260
v -268.078 -34 -260
v -267 -30 -263
v -267 -34 -263
v -268.234 -30 -256
v -268.078 -30 -260
v -268.234 -34 -256
v -268.234 -34 -256
v -268.078 -30 -260
v -268.078 -34 -260
v -264 -26 -265
v -264 -30 -265
v -267 -26 -263
v -267 -26 -263
v -264 -30 -265
v -267 -30 -263
v -260 -26 -266
v -260 -30 -266
v -264 -26 -265
v -264 -26 -265
v -260 -30 -266
v -264 -30 -265
v -256 -26 -266
v -256 -30 -266
v -260 -26 -266
v -260 -26 -266
v -256 -30 -266
v -260 -30 -266
v -268.078 -26 -260
v -267 -26 -263
v -268.078 -30 -260
v -268.078 -30 -260
v -267 -26 -263
v -267 -30 -263
v -268.234 -26 -256
v -268.078 -26 -260
v -268.234 -30 -256
v -268.234 -30 -256
v -268.078 -26 -260
v -268.078 -30 -260
v -264 -22 -265
v -264 -26 -265
v -267 -22 -263
v -267 -22 -263
v -264 -26 -265
v -267 -26 -263
v -260 -22 -266
v -260 -26 -266
v -264 -22 -265
v -264 -22 -265
v -260 -26 -266
v -264 -26 -265
v -256 -22 -266
v -256 -26 -266
v -260 -22 -266
v -260 -22 -266
v -256 -26 -266
v -260 -26 -266
v -268.078 -22 -260
v -267 -22 -263
v -268.078 -26 -260
v -268.078 -26 -260
v -267 -22 -263
v -267 -26 -263
v -268.234 -22 -256
v -268.078 -22 -260
v -268.234 -26 -256
v -268.234 -26 -256
v -268.078 -22 -260
v -268.078 -26 -260
v -264 -18 -265.262
v -264 -22 -265
v -268 -17.9688 -263.378
v -268 -17.9688 -263.378
v -264 -22 -265
v -267 -22 -263
v -260 -18 -266
v -260 -22 -266
v -264 -18 -265.262
v -264 -18 -265.262
v -260 -22 -266
v -264 -22 -265
v -256 -18 -266
v -256 -22 -266
v -260 -18 -266
v -260 -18 -266
v -256 -22 -266
v -260 -22 -266
v -269.039 -18 -260
v -268 -17.9688 -263.378
v -268.078 -22 -260
v -268.078 -22 -260
v -268 -17.9688 -263.378
v -267 -22 -263
v -269.039 -18 -260
v -270.922 -16.9219 -260
v -268 -17.9688 -263.378
v -268 -17.9688 -263.378
v -270.922 -16.9219 -260
v -270.615 -16.6146 -262.615
v -269.117 -18 -256
v -269.039 -18 -260
v -268.234 -22 -256
v -268.234 -22 -256
v -269.039 -18 -260
v -268.078 -22 -260
v -269.117 -18 -256
v -270.922 -16.9219 -256
v -269.039 -18 -260
v -269.039 -18 -260
v -270.922 -16.9219 -256
v -270.922 -16.9219 -260
v -268 -14 -264.445
v -268 -17.9688 -263.378
v -270.922 -14 -262.922
v -270.922 -14 -262.922
v -268 -17.9688 -263.378
v -270.615 -16.6146 -262.615
v -264 -14 -265.523
v -264 -18 -265.262
v -268 -14 -264.445
v -268 -14 -264.445
v -264 -18 -265.262
v -268 -17.9688 -263.378
v -260 -14 -266
v -260 -18 -266
v -264 -14 -265.523
v -264 -14 -265.523
v -260 -18 -266
v -264 -18 -265.262
v -256 -14 -266
v -256 -18 -266
v -260 -14 -266
v -260 -14 -266
v -256 -18 -266
v -260 -18 -266
v -271.844 -14 -260
v -270.922 -14 -262.922
v -270.922 -16.9219 -260
v -270.922 -16.9219 -260
v -270.922 -14 -262.922
v -270.615 -16.6146 -262.615
v -271.844 -14 -256
v -271.844 -14 -260
v -270.922 -16.9219 -256
v -270.922 -16.9219 -256
v -271.844 -14 -260
v -270.922 -16.9219 -260
v -268 -10 -264.445
v -268 -14 -264.445
v -270.922 -10 -262.922
v -270.922 -10 -262.922
v -268 -14 -264.445
v -270.922 -14 -262.922
v -264 -10 -265.523
v -264 -14 -265.523
v -268 -10 -264.445
v -268 -10 -264.445
v -264 -14 -265.523
v -268 -14 -264.445
v -260 -10 -266
v -260 -14 -266
v -264 -10 -265.523
v -264 -10 -265.523
v -260 -14 -266
v -264 -14 -265.523
v -256 -10 -266
v -256 -14 -266
v -260 -10 -266
v -260 -10 -266
v -256 -14 -266
v -260 -14 -266
v -271.844 -10 -260
v -270.922 -10 -262.922
v -271.844 -14 -260
v -271.844 -14 -260
v -270.922 -10 -262.922
v -270.922 -14 -262.922
v -271.844 -10 -256
v -271.844 -10 -260
v -271.844 -14 -256
v -271.844 -14 -256
v -271.844 -10 -260
v -271.844 -14 -260
v -268 -6 -264.445
v -268 -10 -264.445
v -270.922 -6 -262.922
v -270.922 -6 -262.922
v -268 -10 -264.445
v -270.922 -10 -262.922
v -264 -6 -265.523
v -264 -10 -265.523
v -268 -6 -264.445
v -268 -6 -264.445
v -264 -10 -265.523
v -268 -10 -264.445
v -260 -6 -266
v -260 -10 -266
v -264 -6 -265.523
v -264 -6 -265.523
v -260 -10 -266
v -264 -10 -265.523
v -256 -6 -266
v -256 -10 -266
v -260 -6 -266
v -260 -6 -266
v -256 -10 -266
v -260 -10 -266
v -271.844 -6 -260
v -270.922 -6 -262.922
v -271.844 -10 -260
v -271.844 -10 -260
v -270.922 -6 -262.922
v -270.922 -10 -262.922
v -271.844 -6 -256
v -271.844 -6 -260
v -271.844 -10 -256
v -271.844 -10 -256
v -271.844 -6 -260
v -271.844 -10 -260
v -268 -2 -264.445
v -268 -6 -264.445
v -270.922 -2 -262.922
v -270.922 -2 -262.922
v -268 -6 -264.445
v -270.922 -6 -262.922
v -264 -2 -265.512
v -264 -6 -265.523
v -268 -2 -264.445
v -268 -2 -264.445
v -264 -6 -265.523
v -268 -6 -264.445
v -260 -2 -265.977
v -260 -6 -266
v -264 -2 -265.512
v -264 -2 -265.512
v -260 -6 -266
v -264 -6 -265.523
v -256 -2 -265.977
v -256 -6 -266
v -260 -2 -265.977
v -260 -2 -265.977
v -256 -6 -266
v -260 -6 -266
v -271.844 -2 -260
v -270.922 -2 -262.922
v -271.844 -6 -260
v -271.844 -6 -260
v -270.922 -2 -262.922
v -270.922 -6 -262.922
v -271.844 -2 -256
v -271.844 -2 -260
v -271.844 -6 -256
v -271.844 -6 -256
v -271.844 -2 -260
v -271.844 -6 -260

vn -0.220472 -0.220472 -0.952756
vn -0.188976 -0.645669 -0.740157
vn -0.661417 -0.19685 -0.724409
vn -0.661417 -0.19685 -0.724409
vn -0.188976 -0.645669 -0.740157
vn -0.511811 -0.511811 -0.692913
vn -0.220472 0 -0.976378
vn -0.220472 -0.220472 -0.952756
vn -0.692913 0 -0.724409
vn -0.692913 0 -0.724409
vn -0.220472 -0.220472 -0.952756
vn -0.661417 -0.19685 -0.724409
vn -0.220472 0 -0.976378
vn -0.220472 0 -0.976378
vn -0.692913 0 -0.724409
vn -0.692913 0 -0.724409
vn -0.220472 0 -0.976378
vn -0.692913 0 -0.724409
vn -0.220472 0 -0.976378
vn -0.220472 0 -0.976378
vn -0.692913 0 -0.724409
vn -0.692913 0 -0.724409
vn -0.220472 0 -0.976378
vn -0.692913 0 -0.724409
vn -0.220472 0 -0.976378
vn -0.220472 0 -0.976378
vn -0.692913 0 -0.724409
vn -0.692913 0 -0.724409
vn -0.220472 0 -0.976378
vn -0.692913 0 -0.724409
vn -0.220472 0 -0.976378
vn -0.220472 0 -0.976378
vn -0.692913 0 -0.724409
vn -0.692913 0 -0.724409
vn -0.220472 0 -0.976378
vn -0.692913 0 -0.724409
vn -0.204724 -0.0472441 -0.976378
vn -0.220472 0 -0.976378
vn -0.692913 -0.0629921 -0.716535
vn -0.692913 -0.0629921 -0.716535
vn -0.220472 0 -0.976378
vn -0.692913 0 -0.724409
vn -0.15748 -0.984252 -0.0472441
vn -0.700787 -0.700787 -0.141732
vn -0.330709 -0.724409 -0.606299
vn -0.330709 -0.724409 -0.606299
vn -0.700787 -0.700787 -0.141732
vn -0.685039 -0.511811 -0.527559
vn 0 -1 0
vn -0.15748 -0.984252 -0.0472441
vn -0.102362 -0.811024 -0.574803
vn -0.102362 -0.811024 -0.574803
vn -0.15748 -0.984252 -0.0472441
vn -0.330709 -0.724409 -0.606299
vn 0 -1 0
vn 0 -1 0
vn 0 -0.834646 -0.551181
vn 0 -0.834646 -0.551181
vn 0 -1 0
vn -0.102362 -0.811024 -0.574803
vn -0.125984 -0.992126 -0.00787402
vn -0.692913 -0.724409 -0.023622
vn -0.15748 -0.984252 -0.0472441
vn -0.15748 -0.984252 -0.0472441
vn -0.692913 -0.724409 -0.023622
vn -0.700787 -0.700787 -0.141732
vn -0.472441 -0.732283 -0.488189
vn -0.125984 -0.992126 -0.00787402
vn 0 -1 0
vn 0 -1 0
vn -0.125984 -0.992126 -0.00787402
vn -0.15748 -0.984252 -0.0472441
vn -0.102362 -0.519685 -0.850394
vn -0.472441 -0.732283 -0.488189
vn 0 -1 0
vn 0 -1 0
vn -0.472441 -0.732283 -0.488189
vn 0 -1 0
vn -0.102362 -0.519685 -0.850394
vn -0.204724 -0.0472441 -0.976378
vn -0.472441 -0.732283 -0.488189
vn -0.472441 -0.732283 -0.488189
vn -0.204724 -0.0472441 -0.976378
vn -0.692913 -0.0629921 -0.716535
vn -0.377953 -0.204724 -0.905512
vn -0.330709 -0.724409 -0.606299
vn -0.755906 -0.165354 -0.629921
vn -0.755906 -0.165354 -0.629921
vn -0.330709 -0.724409 -0.606299
vn -0.685039 -0.511811 -0.527559
vn -0.11811 -0.244094 -0.96063
vn -0.102362 -0.811024 -0.574803
vn -0.377953 -0.204724 -0.905512
vn -0.377953 -0.204724 -0.905512
vn -0.102362 -0.811024 -0.574803
vn -0.330709 -0.724409 -0.606299
vn 0 -0.244094 -0.968504
vn 0 -0.834646 -0.551181
vn -0.11811 -0.244094 -0.96063
vn -0.11811 -0.244094 -0.96063
vn 0 -0.834646 -0.551181
vn -0.102362 -0.811024 -0.574803
vn -0.968504 -0.15748 -0.173228
vn -0.755906 -0.165354 -0.629921
vn -0.700787 -0.700787 -0.141732
vn -0.700787 -0.700787 -0.141732
vn -0.755906 -0.165354 -0.629921
vn -0.685039 -0.511811 -0.527559
vn -0.984252 -0.15748 -0.0393701
vn -0.968504 -0.15748 -0.173228
vn -0.692913 -0.724409 -0.023622
vn -0.692913 -0.724409 -0.023622
vn -0.968504 -0.15748 -0.173228
vn -0.700787 -0.700787 -0.141732
vn -0.393701 0 -0.92126
vn -0.377953 -0.204724 -0.905512
vn -0.771654 0 -0.629921
vn -0.771654 0 -0.629921
vn -0.377953 -0.204724 -0.905512
vn -0.755906 -0.165354 -0.629921
vn -0.125984 0 -0.992126
vn -0.11811 -0.244094 -0.96063
vn -0.393701 0 -0.92126
vn -0.393701 0 -0.92126
vn -0.11811 -0.244094 -0.96063
vn -0.377953 -0.204724 -0.905512
vn 0 0 -1
vn 0 -0.244094 -0.968504
vn -0.125984 0 -0.992126
vn -0.125984 0 -0.992126
vn 0 -0.244094 -0.968504
vn -0.11811 -0.244094 -0.96063
vn -0.984252 0 -0.173228
vn -0.771654 0 -0.629921
vn -0.968504 -0.15748 -0.173228
vn -0.968504 -0.15748 -0.173228
vn -0.771654 0 -0.629921
vn -0.755906 -0.165354 -0.629921
vn -1 0 -0.0393701
vn -0.984252 0 -0.173228
vn -0.984252 -0.15748 -0.0393701
vn -0.984252 -0.15748 -0.0393701
vn -0.984252 0 -0.173228
vn -0.968504 -0.15748 -0.173228
vn -0.393701 0 -0.92126
vn -0.393701 0 -0.92126
vn -0.771654 0 -0.629921
vn -0.771654 0 -0.629921
vn -0.393701 0 -0.92126
vn -0.771654 0 -0.629921
vn -0.125984 0 -0.992126
vn -0.125984 0 -0.992126
vn -0.393701 0 -0.92126
vn -0.393701 0 -0.92126
vn -0.125984 0 -0.992126
vn -0.393701 0 -0.92126
vn 0 0 -1
vn 0 0 -1
vn -0.125984 0 -0.992126
vn -0.125984 0 -0.992126
vn 0 0 -1
vn -0.125984 0 -0.992126
vn -0.984252 0 -0.173228
vn -0.771654 0 -0.629921
vn -0.984252 0 -0.173228
vn -0.984252 0 -0.173228
vn -0.771654 0 -0.629921
vn -0.771654 0 -0.629921
vn -1 0 -0.0393701
vn -0.984252 0 -0.173228
vn -1 0 -0.0393701
vn -1 0 -0.0393701
vn -0.984252 0 -0.173228
vn -0.984252 0 -0.173228
vn -0.393701 0 -0.92126
vn -0.393701 0 -0.92126
vn -0.771654 0 -0.629921
vn -0.771654 0 -0.629921
vn -0.393701 0 -0.92126
vn -0.771654 0 -0.629921
vn -0.125984 0 -0.992126
vn -0.125984 0 -0.992126
vn -0.393701 0 -0.92126
vn -0.393701 0 -0.92126
vn -0.125984 0 -0.992126
vn -0.393701 0 -0.92126
vn 0 0 -1
vn 0 0 -1
vn -0.125984 0 -0.992126
vn -0.125984 0 -0.992126
vn 0 0 -1
vn -0.125984 0 -0.992126
vn -0.984252 0 -0.173228
vn -0.771654 0 -0.629921
vn -0.984252 0 -0.173228
vn -0.984252 0 -0.173228
vn -0.771654 0 -0.629921
vn -0.771654 0 -0.629921
vn -1 0 -0.0393701
vn -0.984252 0 -0.173228
vn -1 0 -0.0393701
vn -1 0 -0.0393701
vn -0.984252 0 -0.173228
vn -0.984252 0 -0.173228
vn -0.377953 -0.0551181 -0.929134
vn -0.393701 0 -0.92126
vn -0.771654 -0.0866142 -0.629921
vn -0.771654 -0.0866142 -0.629921
vn -0.393701 0 -0.92126
vn -0.771654 0 -0.629921
vn -0.110236 -0.00787402 -0.992126
vn -0.125984 0 -0.992126
vn -0.377953 -0.0551181 -0.929134
vn -0.377953 -0.0551181 -0.929134
vn -0.125984 0 -0.992126
vn -0.393701 0 -0.92126
vn 0 0 -1
vn 0 0 -1
vn -0.110236 -0.00787402 -0.992126
vn -0.110236 -0.00787402 -0.992126
vn 0 0 -1
vn -0.125984 0 -0.992126
vn -0.976378 -0.11811 -0.165354
vn -0.771654 -0.0866142 -0.629921
vn -0.984252 0 -0.173228
vn -0.984252 0 -0.173228
vn -0.771654 -0.0866142 -0.629921
vn -0.771654 0 -0.629921
vn -0.992126 -0.110236 -0.0393701
vn -0.976378 -0.11811 -0.165354
vn -1 0 -0.0393701
vn -1 0 -0.0393701
vn -0.976378 -0.11811 -0.165354
vn -0.984252 0 -0.173228
vn -0.291339 -0.0866142 -0.952756
vn -0.377953 -0.0551181 -0.929134
vn -0.629921 -0.314961 -0.708661
vn -0.629921 -0.314961 -0.708661
vn -0.377953 -0.0551181 -0.929134
vn -0.771654 -0.0866142 -0.629921
vn -0.0787402 -0.00787402 -1
vn -0.110236 -0.00787402 -0.992126
vn -0.291339 -0.0866142 -0.952756
vn -0.291339 -0.0866142 -0.952756
vn -0.110236 -0.00787402 -0.992126
vn -0.377953 -0.0551181 -0.929134
vn 0 0 -1
vn 0 0 -1
vn -0.0787402 -0.00787402 -1
vn -0.0787402 -0.00787402 -1
vn 0 0 -1
vn -0.110236 -0.00787402 -0.992126
vn -0.874016 -0.480315 -0.0944882
vn -0.629921 -0.314961 -0.708661
vn -0.976378 -0.11811 -0.165354
vn -0.976378 -0.11811 -0.165354
vn -0.629921 -0.314961 -0.708661
vn -0.771654 -0.0866142 -0.629921
vn -0.874016 -0.480315 -0.0944882
vn -0.80315 -0.574803 -0.125984
vn -0.629921 -0.314961 -0.708661
vn -0.629921 -0.314961 -0.708661
vn -0.80315 -0.574803 -0.125984
vn -0.732283 -0.480315 -0.480315
vn -0.889764 -0.456693 -0.023622
vn -0.874016 -0.480315 -0.0944882
vn -0.992126 -0.110236 -0.0393701
vn -0.992126 -0.110236 -0.0393701
vn -0.874016 -0.480315 -0.0944882
vn -0.976378 -0.11811 -0.165354
vn -0.889764 -0.456693 -0.023622
vn -0.826772 -0.566929 0
vn -0.874016 -0.480315 -0.0944882
vn -0.874016 -0.480315 -0.0944882
vn -0.826772 -0.566929 0
vn -0.80315 -0.574803 -0.125984
vn -0.377953 -0.0944882 -0.92126
vn -0.629921 -0.314961 -0.708661
vn -0.740157 -0.141732 -0.661417
vn -0.740157 -0.141732 -0.661417
vn -0.629921 -0.314961 -0.708661
vn -0.732283 -0.480315 -0.480315
vn -0.204724 -0.023622 -0.976378
vn -0.291339 -0.0866142 -0.952756
vn -0.377953 -0.0944882 -0.92126
vn -0.377953 -0.0944882 -0.92126
vn -0.291339 -0.0866142 -0.952756
vn -0.629921 -0.314961 -0.708661
vn -0.0629921 0 -1
vn -0.0787402 -0.00787402 -1
vn -0.204724 -0.023622 -0.976378
vn -0.204724 -0.023622 -0.976378
vn -0.0787402 -0.00787402 -1
vn -0.291339 -0.0866142 -0.952756
vn 0 0 -1
vn 0 0 -1
vn -0.0629921 0 -1
vn -0.0629921 0 -1
vn 0 0 -1
vn -0.0787402 -0.00787402 -1
vn -0.984252 -0.141732 -0.141732
vn -0.740157 -0.141732 -0.661417
vn -0.80315 -0.574803 -0.125984
vn -0.80315 -0.574803 -0.125984
vn -0.740157 -0.141732 -0.661417
vn -0.732283 -0.480315 -0.480315
vn -0.992126 -0.133858 0
vn -0.984252 -0.141732 -0.141732
vn -0.826772 -0.566929 0
vn -0.826772 -0.566929 0
vn -0.984252 -0.141732 -0.141732
vn -0.80315 -0.574803 -0.125984
vn -0.354331 0 -0.937008
vn -0.377953 -0.0944882 -0.92126
vn -0.755906 0 -0.653543
vn -0.755906 0 -0.653543
vn -0.377953 -0.0944882 -0.92126
vn -0.740157 -0.141732 -0.661417
vn -0.188976 0 -0.984252
vn -0.204724 -0.023622 -0.976378
vn -0.354331 0 -0.937008
vn -0.354331 0 -0.937008
vn -0.204724 -0.023622 -0.976378
vn -0.377953 -0.0944882 -0.92126
vn -0.0629921 0 -1
vn -0.0629921 0 -1
vn -0.188976 0 -0.984252
vn -0.188976 0 -0.984252
vn -0.0629921 0 -1
vn -0.204724 -0.023622 -0.976378
vn 0 0 -1
vn 0 0 -1
vn -0.0629921 0 -1
vn -0.0629921 0 -1
vn 0 0 -1
vn -0.0629921 0 -1
vn -0.992126 0 -0.133858
vn -0.755906 0 -0.653543
vn -0.984252 -0.141732 -0.141732
vn -0.984252 -0.141732 -0.141732
vn -0.755906 0 -0.653543
vn -0.740157 -0.141732 -0.661417
vn -1 0 0
vn -0.992126 0 -0.133858
vn -0.992126 -0.133858 0
vn -0.992126 -0.133858 0
vn -0.992126 0 -0.133858
vn -0.984252 -0.141732 -0.141732
vn -0.354331 0 -0.937008
vn -0.354331 0 -0.937008
vn -0.755906 0 -0.653543
vn -0.755906 0 -0.653543
vn -0.354331 0 -0.937008
vn -0.755906 0 -0.653543
vn -0.188976 0 -0.984252
vn -0.188976 0 -0.984252
vn -0.354331 0 -0.937008
vn -0.354331 0 -0.937008
vn -0.188976 0 -0.984252
vn -0.354331 0 -0.937008
vn -0.0551181 0 -1
vn -0.0629921 0 -1
vn -0.188976 0 -0.984252
vn -0.188976 0 -0.984252
vn -0.0629921 0 -1
vn -0.188976 0 -0.984252
vn 0 0 -1
vn 0 0 -1
vn -0.0551181 0 -1
vn -0.0551181 0 -1
vn 0 0 -1
vn -0.0629921 0 -1
vn -0.992126 0 -0.133858
vn -0.755906 0 -0.653543
vn -0.992126 0 -0.133858
vn -0.992126 0 -0.133858
vn -0.755906 0 -0.653543
vn -0.755906 0 -0.653543
vn -1 0 0
vn -0.992126 0 -0.133858
vn -1 0 0
vn -1 0 0
vn -0.992126 0 -0.133858
vn -0.992126 0 -0.133858
vn -0.354331 0 -0.937008
vn -0.354331 0 -0.937008
vn -0.755906 0 -0.653543
vn -0.755906 0 -0.653543
vn -0.354331 0 -0.937008
vn -0.755906 0 -0.653543
vn -0.181102 0.023622 -0.984252
vn -0.188976 0 -0.984252
vn -0.354331 0 -0.937008
vn -0.354331 0 -0.937008
vn -0.188976 0 -0.984252
vn -0.354331 0 -0.937008
vn -0.0472441 0.0551181 -1
vn -0.0551181 0 -1
vn -0.181102 0.023622 -0.984252
vn -0.181102 0.023622 -0.984252
vn -0.0551181 0 -1
vn -0.188976 0 -0.984252
vn 0 0.0629921 -1
vn 0 0 -1
vn -0.0472441 0.0551181 -1
vn -0.0472441 0.0551181 -1
vn 0 0 -1
vn -0.0551181 0 -1
vn -0.992126 0 -0.133858
vn -0.755906 0 -0.653543
vn -0.992126 0 -0.133858
vn -0.992126 0 -0.133858
vn -0.755906 0 -0.653543
vn -0.755906 0 -0.653543
vn -1 0 0
vn -0.992126 0 -0.133858
vn -1 0 0
vn -1 0 0
vn -0.992126 0 -0.133858
vn -0.992126 0 -0.133858

f 1//1 2//2 3//3
f 4//4 5//5 6//6
f 7//7 8//8 9//9
f 10//10 11//11 12//12
f 13//13 14//14 15//15
f 16//16 17//17 18//18
f 19//19 20//20 21//21
f 22//22 23//23 24//24
f 25//25 26//26 27//27
f 28//28 29//29 30//30
f 31//31 32//32 33//33
f 34//34 35//35 36//36
f 37//37 38//38 39//39
f 40//40 41//41 42//42
f 43//43 44//44 45//45
f 46//46 47//47 48//48
f 49//49 50//50 51//51
f 52//52 53//53 54//54
f 55//55 56//56 57//57
f 58//58 59//59 60//60
f 61//61 62//62 63//63
f 64//64 65//65 66//66
f 67//67 68//68 69//69
f 70//70 71//71 72//72
f 73//73 74//74 75//75
f 76//76 77//77 78//78
f 79//79 80//80 81//81
f 82//82 83//83 84//84
f 85//85 86//86 87//87
f 88//88 89//89 90//90
f 91//91 92//92 93//93
f 94//94 95//95 96//96
f 97//97 98//98 99//99
f 100//100 101//101 102//102
f 103//103 104//104 105//105
f 106//106 107//107 108//108
f 109//109 110//110 111//111
f 112//112 113//113 114//114
f 115//115 116//116 117//117
f 118//118 119//119 120//120
f 121//121 122//122 123//123
f 124//124 125//125 126//126
f 127//127 128//128 129//129
f 130//130 131//131 132//132
f 133//133 134//134 135//135
f 136//136 137//137 138//138
f 139//139 140//140 141//141
f 142//142 143//143 144//144
f 145//145 146//146 147//147
f 148//148 149//149 150//150
f 151//151 152//152 153//153
f 154//154 155//155 156//156
f 157//157 158//158 159//159
f 160//160 161//161 162//162
f 163//163 164//164 165//165
f 166//166 167//167 168//168
f 169//169 170//170 171//171
f 172//172 173//173 174//174
f 175//175 176//176 177//177
f 178//178 179//179 180//180
f 181//181 182//182 183//183
f 184//184 185//185 186//186
f 187//187 188//188 189//189
f 190//190 191//191 192//192
f 193//193 194//194 195//195
f 196//196 197//197 198//198
f 199//199 200//200 201//201
f 202//202 203//203 204//204
f 205//205 206//206 207//207
f 208//208 209//209 210//210
f 211//211 212//212 213//213
f 214//214 215//215 216//216
f 217//217 218//218 219//219
f 220//220 221//221 222//222
f 223//223 224//224 225//225
f 226//226 227//227 228//228
f 229//229 230//230 231//231
f 232//232 233//233 234//234
f 235//235 236//236 237//237
f 238//238 239//239 240//240
f 241//241 242//242 243//243
f 244//244 245//245 246//246
f 247//247 248//248 249//249
f 250//250 251//251 252//252
f 253//253 254//254 255//255
f 256//256 257//257 258//258
f 259//259 260//260 261//261
f 262//262 263//263 264//264
f 265//265 266//266 267//267
f 268//268 269//269 270//270
f 271//271 272//272 273//273
f 274//274 275//275 276//276
f 277//277 278//278 279//279
f 280//280 281//281 282//282
f 283//283 284//284 285//285
f 286//286 287//287 288//288
f 289//289 290//290 291//291
f 292//292 293//293 294//294
f 295//295 296//296 297//297
f 298//298 299//299 300//300
f 301//301 302//302 303//303
f 304//304 305//305 306//306
f 307//307 308//308 309//309
f 310//310 311//311 312//312
f 313//313 314//314 315//315
f 316//316 317//317 318//318
f 319//319 320//320 321//321
f 322//322 323//323 324//324
f 325//325 326//326 327//327
f 328//328 329//329 330//330
f 331//331 332//332 333//333
f 334//334 335//335 336//336
f 337//337 338//338 339//339
f 340//340 341//341 342//342
f 343//343 344//344 345//345
f 346//346 347//347 348//348
f 349//349 350//350 351//351
f 352//352 353//353 354//354
f 355//355 356//356 357//357
f 358//358 359//359 360//360
f 361//361 362//362 363//363
f 364//364 365//365 366//366
f 367//367 368//368 369//369
f 370//370 371//371 372//372
f 373//373 374//374 375//375
f 376//376 377//377 378//378
f 379//379 380//380 381//381
f 382//382 383//383 384//384
f 385//385 386//386 387//387
f 388//388 389//389 390//390
f 391//391 392//392 393//393
f 394//394 395//395 396//396
f 397//397 398//398 399//399
f 400//400 401//401 402//402
f 403//403 404//404 405//405
f 406//406 407//407 408//408
f 409//409 410//410 411//411
f 412//412 413//413 414//414
f 415//415 416//416 417//417
f 418//418 419//419 420//420
