v 160 -10 0
v 156 -8 0
v 160 -8 -4
v 160 -8 -4
v 156 -8 0
v 156.667 -7.33333 -3.33333
v 164 -8 0
v 160 -10 0
v 163.333 -7.33333 -3.33333
v 163.333 -7.33333 -3.33333
v 160 -10 0
v 160 -8 -4
v 160.4 -3.6 -4.4
v 160 -8 -4
v 156 -4 -4
v 156 -4 -4
v 160 -8 -4
v 156.667 -7.33333 -3.33333
v 163.333 -4.66667 -3.33333
v 163.333 -7.33333 -3.33333
v 160.4 -3.6 -4.4
v 160.4 -3.6 -4.4
v 163.333 -7.33333 -3.33333
v 160 -8 -4
v 154 -4 0
v 156 -4 -4
v 156 -8 0
v 156 -8 0
v 156 -4 -4
v 156.667 -7.33333 -3.33333
v 164 -4 0
v 164 -8 0
v 163.333 -4.66667 -3.33333
v 163.333 -4.66667 -3.33333
v 164 -8 0
v 163.333 -7.33333 -3.33333
v 164 -4 0
v 163.333 -4.66667 -3.33333
v 162 -2 0
v 162 -2 0
v 163.333 -4.66667 -3.33333
v 160.4 -3.6 -4.4
v 159.333 -0.666667 -3.33333
v 160.4 -3.6 -4.4
v 156.667 -0.666667 -3.33333
v 156.667 -0.666667 -3.33333
v 160.4 -3.6 -4.4
v 156 -4 -4
v 156 0 0
v 156.667 -0.666667 -3.33333
v 154 -4 0
v 154 -4 0
v 156.667 -0.666667 -3.33333
v 156 -4 -4
v 160 0 0
v 162 -2 0
v 159.333 -0.666667 -3.33333
v 159.333 -0.666667 -3.33333
v 162 -2 0
v 160.4 -3.6 -4.4
v 160 0 0
v 159.333 -0.666667 -3.33333
v 156 0 0
v 156 0 0
v 159.333 -0.666667 -3.33333
v 156.667 -0.666667 -3.33333

vn 0.110236 -0.976378 -0.188976
vn -0.748031 -0.653543 -0.110236
vn -0.102362 -0.590551 -0.795276
vn -0.102362 -0.590551 -0.795276
vn -0.748031 -0.653543 -0.110236
vn -0.574803 -0.574803 -0.574803
vn 0.866142 -0.480315 -0.141732
vn 0.110236 -0.976378 -0.188976
vn 0.496063 -0.551181 -0.669291
vn 0.496063 -0.551181 -0.669291
vn 0.110236 -0.976378 -0.188976
vn -0.102362 -0.590551 -0.795276
vn 0.251969 0.251969 -0.937008
vn -0.102362 -0.590551 -0.795276
vn -0.590551 -0.102362 -0.795276
vn -0.590551 -0.102362 -0.795276
vn -0.102362 -0.590551 -0.795276
vn -0.574803 -0.574803 -0.574803
vn 0.811024 0.377953 -0.448819
vn 0.496063 -0.551181 -0.669291
vn 0.251969 0.251969 -0.937008
vn 0.251969 0.251969 -0.937008
vn 0.496063 -0.551181 -0.669291
vn -0.102362 -0.590551 -0.795276
vn -1 0.0314961 -0.0787402
vn -0.590551 -0.102362 -0.795276
vn -0.748031 -0.653543 -0.110236
vn -0.748031 -0.653543 -0.110236
vn -0.590551 -0.102362 -0.795276
vn -0.574803 -0.574803 -0.574803
vn 0.913386 0.401575 -0.0314961
vn 0.866142 -0.480315 -0.141732
vn 0.811024 0.377953 -0.448819
vn 0.811024 0.377953 -0.448819
vn 0.866142 -0.480315 -0.141732
vn 0.496063 -0.551181 -0.669291
vn 0.913386 0.401575 -0.0314961
vn 0.811024 0.377953 -0.448819
vn 0.700787 0.700787 -0.165354
vn 0.700787 0.700787 -0.165354
vn 0.811024 0.377953 -0.448819
vn 0.251969 0.251969 -0.937008
vn 0.377953 0.811024 -0.448819
vn 0.251969 0.251969 -0.937008
vn -0.551181 0.496063 -0.669291
vn -0.551181 0.496063 -0.669291
vn 0.251969 0.251969 -0.937008
vn -0.590551 -0.102362 -0.795276
vn -0.582677 0.811024 0.0393701
vn -0.551181 0.496063 -0.669291
vn -1 0.0314961 -0.0787402
vn -1 0.0314961 -0.0787402
vn -0.551181 0.496063 -0.669291
vn -0.590551 -0.102362 -0.795276
vn 0.330709 0.944882 0.0629921
vn 0.700787 0.700787 -0.165354
vn 0.377953 0.811024 -0.448819
vn 0.377953 0.811024 -0.448819
vn 0.700787 0.700787 -0.165354
vn 0.251969 0.251969 -0.937008
vn 0.330709 0.944882 0.0629921
vn 0.377953 0.811024 -0.448819
vn -0.582677 0.811024 0.0393701
vn -0.582677 0.811024 0.0393701
vn 0.377953 0.811024 -0.448819
vn -0.551181 0.496063 -0.669291

f 1//1 2//2 3//3
f 4//4 5//5 6//6
f 7//7 8//8 9//9
f 10//10 11//11 12//12
f 13//13 14//14 15//15
f 16//16 17//17 18//18
f 19//19 20//20 21//21
f 22//22 23//23 24//24
f 25//25 26//26 27//27
f 28//28 29//29 30//30
f 31//31 32//32 33//33
f 34//34 35//35 36//36
f 37//37 38//38 39//39
f 40//40 41//41 42//42
f 43//43 44//44 45//45
f 46//46 47//47 48//48
f 49//49 50//50 51//51
f 52//52 53//53 54//54
f 55//55 56//56 57//57
f 58//58 59//59 60//60
f 61//61 62//62 63//63
f 64//64 65//65 66//66
