# This file is brought to you by Roblox Corporation
# Generated by Roblox Studio

mtllib shield.mtl

g Union1

v 0 0.75 0 
v 1.5 0.75 2.5 
v 3.11765 0.75 1.11345 
v 0 0.75 2.5 
v 3.11765 0.75 1.11345 
v 1.5 0.75 2.5 
v 1.5 -0.75 2.5 
v 0 0.75 0 
v 3.11765 0.75 1.11345 
v 3.11765 -0.75 1.11345 
v 1.5 -0.75 2.5 
v 0 -0.75 2.5 
v 0 -0.75 0 
v 0 -0.75 2.5 
v 1.5 -0.75 2.5 
v 1.5 0.75 2.5 
v 0 0.75 2.5 
v -1.5 0.75 2.5 
v 3.11765 -0.75 1.11345 
v 3.11765 -0.75 1.11345 
v 0 -0.75 0 
v -1.5 -0.75 2.5 
v -1.5 -0.75 2.5 
v -3.11765 -0.75 1.11345 
v -1.5 -0.75 2.5 
v -1.5 0.75 2.5 
v -3.11765 -0.75 1.11345 
v 0 -0.75 0 
v -3.11765 -0.75 1.11345 
v -3.11765 0.75 1.11345 
v -1.5 0.75 2.5 
v -3.11765 0.75 1.11345 
v -3.11765 0.75 1.11345 
v 0 0.75 0 

vn 0 1 0 
vn 0 1 0 
vn 0 1 0 
vn 0 1 0 
vn 0.653543 0 0.755906 
vn 0.653543 0 0.755906 
vn 0.653543 0 0.755906 
vn 0.338583 0 -0.944882 
vn 0.338583 0 -0.944882 
vn 0.338583 0 -0.944882 
vn 0 -1 0 
vn 0 -1 0 
vn 0 -1 0 
vn 0 0 1 
vn 0 0 1 
vn 0 0 1 
vn 0 0 1 
vn 0 0 1 
vn 0.653543 0 0.755906 
vn 0 -1 0 
vn 0.338583 0 -0.944882 
vn 0 -1 0 
vn 0 0 1 
vn -0.653543 0 0.755906 
vn -0.653543 0 0.755906 
vn -0.653543 0 0.755906 
vn 0 -1 0 
vn -0.338583 0 -0.944882 
vn -0.338583 0 -0.944882 
vn -0.338583 0 -0.944882 
vn 0 1 0 
vn -0.653543 0 0.755906 
vn 0 1 0 
vn -0.338583 0 -0.944882 

vt -1.6441 -3.64417 
vt -3.59409 -0.394166 
vt -5.69704 -2.19669 
vt -1.6441 -0.394166 
vt 2.40885 -1.04417 
vt 0.305904 -1.04417 
vt 0.305904 -2.99417 
vt -1.6441 -1.04417 
vt -5.69704 -1.04417 
vt -5.69704 -2.99417 
vt 0.305904 -0.394166 
vt -1.6441 -0.394166 
vt -1.6441 -3.64417 
vt -1.6441 -2.99417 
vt 0.305904 -2.99417 
vt 0.305904 -1.04417 
vt -1.6441 -1.04417 
vt -3.59409 -1.04417 
vt 2.40885 -2.99417 
vt 2.40885 -2.19669 
vt -1.6441 -2.99417 
vt -3.59409 -0.394166 
vt -3.59409 -2.99417 
vt -5.69704 -2.99417 
vt -3.59409 -2.99417 
vt -3.59409 -1.04417 
vt -5.69704 -2.19669 
vt -1.6441 -2.99417 
vt 2.40885 -2.99417 
vt 2.40885 -1.04417 
vt 0.305904 -0.394166 
vt -5.69704 -1.04417 
vt 2.40885 -2.19669 
vt -1.6441 -1.04417 

usemtl Union1Mtl

f 1/1/1 2/2/2 3/3/3 
f 2/2/2 1/1/1 4/4/4 
f 5/5/5 6/6/6 7/7/7 
f 8/8/8 9/9/9 10/10/10 
f 11/11/11 12/12/12 13/13/13 
f 14/14/14 15/15/15 16/16/16 
f 14/14/14 17/17/17 18/18/18 
f 17/17/17 14/14/14 16/16/16 
f 19/19/19 5/5/5 7/7/7 
f 13/13/13 20/20/20 11/11/11 
f 10/10/10 21/21/21 8/8/8 
f 13/13/13 12/12/12 22/22/22 
f 23/23/23 14/14/14 18/18/18 
f 24/24/24 25/25/25 26/26/26 
f 22/22/22 27/27/27 13/13/13 
f 28/28/28 29/29/29 30/30/30 
f 31/31/31 4/4/4 1/1/1 
f 32/32/32 24/24/24 26/26/26 
f 1/1/1 33/33/33 31/31/31 
f 30/30/30 34/34/34 28/28/28 

