# This file is brought to you by Roblox Corporation
# Generated by Roblox Studio

mtllib wall.mtl

g Union1

v 0.999999 0.414213 -1 
v -0.999999 0.414213 -1 
v -0.414212 1 -0.414213 
v -0.999999 0.414213 -1 
v 0.999999 0.414213 -1 
v -0.999999 -0.414213 -1 
v 1 0.414212 -1 
v 0.999999 0.414213 -1 
v 0.414212 1 -0.414213 
v 1 0.414212 -1 
v 1 -0.414213 -1 
v -0.999999 -0.414213 -1 
v 1 -0.414213 -1 
v -0.414212 -1 -0.414213 
v -1 -0.414212 -1 
v -0.999999 -0.414213 -1 
v -0.414212 -1 -0.414213 
v -1 -0.414212 -1 
v -1 0.414212 -1 
v -0.414212 -1 -0.414213 
v 0.414213 -1 -0.414213 
v 0.414213 -1 0.414213 
v 0.414213 -1 -0.414213 
v -0.414212 -1 0.414213 
v -1 -0.414212 1 
v -0.414212 -1 0.414213 
v 0.414213 -1 0.414213 
v 0.414213 -1 -0.414213 
v 1 -0.414213 -1 
v -0.414212 -1 0.414213 
v 0.414213 -1 0.414213 
v -0.999999 -0.414213 1 
v -1 -0.414212 1 
v -1 0.414212 -1 
v -1 -0.414212 -1 
v -1 0.414212 1 
v -1 0.414212 -1 
v -1 0.414212 1 
v -0.414212 1 -0.414213 
v -1 0.414212 1 
v -1 -0.414212 1 
v -0.999999 -0.414213 1 
v -0.999998 0.414214 1 
v 0.999998 0.414214 1 
v 0.414212 1 0.414214 
v 0.999998 0.414214 1 
v -0.999998 0.414214 1 
v -0.999999 -0.414213 1 
v 1 -0.414213 1 
v 1 -0.414213 1 
v 1 0.414212 1 
v 1 -0.414213 1 
v 1 -0.414213 -1 
v 1 0.414212 1 
v 0.999998 0.414214 1 
v 1 0.414212 1 
v 0.414212 1 0.414214 
v -0.999998 0.414214 1 
v -0.414212 1 0.414214 
v -0.414212 1 -0.414213 
v -0.414212 1 0.414214 
v 0.414212 1 0.414214 
v -0.414212 1 0.414214 
v 0.414212 1 -0.414213 
v 1 -0.414213 -1 
v 1 -0.414213 -1 
v 1 0.414212 -1 
v 1 -0.414213 1 
v 0.414212 1 -0.414213 
v -0.999999 0.414213 -1 

vn 0 0.708661 -0.708661 
vn 0 0.708661 -0.708661 
vn 0 0.708661 -0.708661 
vn 0 0 -1 
vn 0 0 -1 
vn 0 0 -1 
vn 0.708661 0.708661 0 
vn 0.708661 0.708661 0 
vn 0.708661 0.708661 0 
vn 0 0 -1 
vn 0 0 -1 
vn 0 -0.708661 -0.708661 
vn 0 -0.708661 -0.708661 
vn 0 -0.708661 -0.708661 
vn -0.708661 -0.708661 0 
vn -0.708661 -0.708661 0 
vn -0.708661 -0.708661 0 
vn 0 0 -1 
vn 0 0 -1 
vn 0 -1 0 
vn 0 -1 0 
vn 0 -1 0 
vn 0 -0.708661 -0.708661 
vn -0.708661 -0.708661 0 
vn -0.708661 -0.708661 0 
vn 0 -1 0 
vn 0.708661 -0.708661 0 
vn 0.708661 -0.708661 0 
vn 0.708661 -0.708661 0 
vn 0 -0.708661 0.708661 
vn 0 -0.708661 0.708661 
vn 0 -0.708661 0.708661 
vn -1 0 0 
vn -1 0 0 
vn -1 0 0 
vn -1 0 0 
vn -0.708661 0.708661 0 
vn -0.708661 0.708661 0 
vn -0.708661 0.708661 0 
vn 0 0 1 
vn 0 0 1 
vn 0 0 1 
vn 0 0.708661 0.708661 
vn 0 0.708661 0.708661 
vn 0 0.708661 0.708661 
vn 0 0 1 
vn 0 0 1 
vn -0.708661 -0.708661 0 
vn 0 -0.708661 0.708661 
vn 0 0 1 
vn 1 0 0 
vn 1 0 0 
vn 1 0 0 
vn 0 0 1 
vn 0.708661 0.708661 0 
vn 0.708661 0.708661 0 
vn 0.708661 0.708661 0 
vn -0.708661 0.708661 0 
vn -0.708661 0.708661 0 
vn 0 1 0 
vn 0 1 0 
vn 0 1 0 
vn 0 0.708661 0.708661 
vn 0 1 0 
vn 0 -0.708661 -0.708661 
vn 1 0 0 
vn 1 0 0 
vn 0.708661 -0.708661 0 
vn 0 0.708661 -0.708661 
vn -0.708661 0.708661 0 

vt 1.68248 -1.36893 
vt 3.52096 0.46955 
vt 2.444 0.46955 
vt 3.52096 0.46955 
vt 1.68248 -1.36893 
vt 4.28248 -0.291971 
vt 4.28248 -1.36893 
vt 4.28248 -1.36893 
vt 3.52096 -0.29197 
vt 1.68248 -1.36893 
vt 2.444 -2.13045 
vt 4.28248 -0.291971 
vt 2.444 -2.13045 
vt 4.28248 -1.36893 
vt 1.68248 -0.29197 
vt 1.68248 -0.291971 
vt 2.444 -1.36893 
vt 4.28248 -0.29197 
vt 3.52096 0.46955 
vt 2.444 -1.36893 
vt 2.444 -2.13045 
vt 3.52096 -2.13045 
vt 3.52096 -2.13045 
vt 3.52096 -1.36893 
vt 4.28248 -0.29197 
vt 3.52096 -1.36893 
vt 3.52096 -0.291971 
vt 2.444 -0.291971 
vt 1.68248 -1.36893 
vt 1.68248 -1.36893 
vt 2.444 -2.13045 
vt 1.68248 -0.291972 
vt 4.28248 -0.29197 
vt 1.68248 0.46955 
vt 1.68248 -0.29197 
vt 4.28248 0.46955 
vt 4.28248 -0.29197 
vt 1.68248 -0.29197 
vt 3.52096 -1.36893 
vt 2.444 0.46955 
vt 1.68248 -0.29197 
vt 1.68248 -0.291972 
vt 2.444 0.46955 
vt 4.28248 -1.36892 
vt 4.28248 -0.29197 
vt 4.28248 -1.36892 
vt 2.444 0.46955 
vt 4.28248 -0.291972 
vt 3.52096 -2.13045 
vt 3.52096 -2.13045 
vt 1.68248 -1.36893 
vt 1.68248 -2.13045 
vt 4.28248 -2.13045 
vt 4.28248 -1.36893 
vt 1.68248 -1.36892 
vt 1.68248 -1.36893 
vt 2.444 -0.29197 
vt 1.68248 -0.291973 
vt 2.444 -1.36893 
vt 3.52096 0.46955 
vt 2.444 0.46955 
vt 2.444 -0.29197 
vt 3.52096 0.46955 
vt 3.52096 -0.29197 
vt 2.444 -2.13045 
vt 4.28248 -2.13045 
vt 4.28248 -1.36893 
vt 4.28248 -1.36893 
vt 1.68248 -0.29197 
vt 4.28248 -0.291971 

usemtl Union1Mtl

f 1/1/1 2/2/2 3/3/3 
f 4/4/4 5/5/5 6/6/6 
f 7/7/7 8/8/8 9/9/9 
f 5/5/5 10/10/10 11/11/11 
f 12/12/12 13/13/13 14/14/14 
f 11/11/11 6/6/6 5/5/5 
f 15/15/15 16/16/16 17/17/17 
f 6/6/6 18/18/18 19/19/19 
f 20/20/20 21/21/21 22/22/22 
f 23/23/23 14/14/14 13/13/13 
f 17/17/17 24/24/24 25/25/25 
f 26/26/26 20/20/20 22/22/22 
f 27/27/27 28/28/28 29/29/29 
f 30/30/30 31/31/31 32/32/32 
f 33/33/33 34/34/34 35/35/35 
f 34/34/34 33/33/33 36/36/36 
f 25/25/25 15/15/15 17/17/17 
f 37/37/37 38/38/38 39/39/39 
f 40/40/40 41/41/41 42/42/42 
f 43/43/43 44/44/44 45/45/45 
f 46/46/46 47/47/47 42/42/42 
f 48/48/48 25/25/25 24/24/24 
f 49/49/49 32/32/32 31/31/31 
f 42/42/42 50/50/50 46/46/46 
f 40/40/40 42/42/42 47/47/47 
f 51/51/51 52/52/52 53/53/53 
f 50/50/50 54/54/54 46/46/46 
f 55/55/55 56/56/56 57/57/57 
f 38/38/38 58/58/58 59/59/59 
f 59/59/59 39/39/39 38/38/38 
f 60/60/60 61/61/61 62/62/62 
f 45/45/45 63/63/63 43/43/43 
f 60/60/60 62/62/62 64/64/64 
f 9/9/9 57/57/57 56/56/56 
f 13/13/13 65/65/65 23/23/23 
f 53/53/53 66/66/66 67/67/67 
f 53/53/53 67/67/67 51/51/51 
f 29/29/29 68/68/68 27/27/27 
f 56/56/56 7/7/7 9/9/9 
f 69/69/69 1/1/1 3/3/3 
f 39/39/39 70/70/70 37/37/37 
f 19/19/19 4/4/4 6/6/6 

